<svg xmlns="http://www.w3.org/2000/svg" viewBox="0 0 879.34 175.31"><defs><style>.cls-1{fill:#cd8b47;}</style></defs><title>bg3</title><g id="图层_2" data-name="图层 2"><g id="图层_1-2" data-name="图层 1"><path class="cls-1" d="M879.34,21c-17.9-2.47-45.48-6.53-51.27-8.79-8.73-3.4-16-1.36-18.91,2s-13.82,8.85-20.37,6.13S754.59,0,742.95,0s-33.46,23.82-44.38,24.5-53.83,10.89-64.75,10.89-42.19,2-46.56-2-10.19,0-14.55,2.72-37.1,2-46.56,2.72S496.33,34,484,37.43s-64.75,23.14-74.21,21.1-56-26.54-73.48-25.18-26.92-9.53-54.56-8.17-65.47,5.44-80,3.4-98.94.68-112.76-5.44S37.28,10.89,27.09,11.57C22.22,11.9,10.7,13.93,0,16V175.31l879.34-.25Z"/></g></g></svg>