<svg xmlns="http://www.w3.org/2000/svg" viewBox="0 0 879.34 154.47"><defs><style>.cls-1{fill:#cd8b47;}</style></defs><title>bg4</title><g id="图层_2" data-name="图层 2"><g id="图层_1-2" data-name="图层 1"><path class="cls-1" d="M879.34,154.47V24.4c-11.27.6-23.63.94-28-.09-8.73-2-32-2.39-45.11-2s-41.46-.68-52.38-4.1-18.91-2.39-26.92.34-32-1-42.93,0S665.84,26,652,26s-54.57-8.19-68.39-5.46S539.25,33.19,529.79,32.5,500,25.34,484.69,27,456.31,39.67,449,38.31a87,87,0,0,1-15.28-4.78s-8.73,5.12-21.1,1.36-23.28-7.17-40-6.14S342.1,33.19,337,30.12s-14.55-3.41-23.28-3.41-30.56-9.55-48-9.55-36.38,6.14-42.92,5.46-21.83-8.53-29.1-13-17.46-3.07-24-2.39S160.22,1.11,142,.09,109.3,7.59,102,9,86,9,82.38,10.32s-3.64,6.48-9.46,7.51-21.1.34-26.19-1.37-10.91-3.41-14.55-.34S17.63,22.95,13.27,20.9c-1.64-.77-7.1-1.74-13.27-2.64v136.2Z"/></g></g></svg>