<svg xmlns="http://www.w3.org/2000/svg" viewBox="0 0 879.34 120.71"><defs><style>.cls-1{fill:#c4844f;}</style></defs><title>bg5</title><g id="图层_2" data-name="图层 2"><g id="图层_1-2" data-name="图层 1"><path class="cls-1" d="M879.34,120.71v-56c-1.17.08-2.28.18-3.27.33-11.64,1.71-28.36,5.48-41.45,4.8s-33.48-6.8-48.76-6.46-50.94-6.11-65.49-6.1-29.85-7.15-42.95-10.9S616.62-.45,601.28,0C593.86.22,580,16.13,565.65,23.2c-15.36,7.56-10-10.15-47.87,16.67-11.51,8.15-31.7,7.35-47.7,9.75s-40.74.71-56.75-2.7S382,45.58,371.14,47s-27.62,10.25-40.71,10.26-32.74-.32-47.28,3.44a167.94,167.94,0,0,1-40,4.8c-10.19,0-40.74.71-58.91,5.84s-69.08,10.28-80,5.85S81.62,57.71,72.17,57.37s-20.37-1.35-24-5.1S31.37,39.31,11,47.52C7.33,49,3.61,50.45,0,51.82v68.89Z"/></g></g></svg>