<svg xmlns="http://www.w3.org/2000/svg" viewBox="0 0 940.88 143.86"><defs><style>.cls-1{fill:#d5a56c;}</style></defs><title>bg6</title><g id="图层_2" data-name="图层 2"><g id="图层_1-2" data-name="图层 1"><path class="cls-1" d="M0,143.86V52c1.26.08,2.44.18,3.49.33,12.45,1.71,30.34,5.48,44.36,4.8S83.68,50.3,100,50.65s54.51-6.11,70.08-6.1,31.93-7.15,46-10.9,24-25,45-25S278.29,23,294.71,23.47,327.29,0,345.07,0c16.08,0,48,19.6,62.5,26.26s26.89.62,44,3,34.09,17.9,51.22,14.5,33.59-5.72,45.27-4.35,25.26,5,39.26,5,35-.32,50.59,3.44a191.7,191.7,0,0,0,42.8,4.8c10.9,0,43.59.71,63,5.84s73.92,10.28,85.61,5.85,24.19-19.44,34.31-19.77,21.8-1.35,25.7-5.1,17.94-13,39.72-4.75c4,1.49,7.93,2.93,11.8,4.3V143.86Z"/></g></g></svg>