<svg xmlns="http://www.w3.org/2000/svg" viewBox="0 0 940.88 88.27"><defs><style>.cls-1{fill:#ddb789;}</style></defs><title>bg7</title><g id="图层_2" data-name="图层 2"><g id="图层_1-2" data-name="图层 1"><path class="cls-1" d="M940.88,88.27v-62c-4.08.88-8.58,1.49-11.27.5-4.67-1.7-11.68,2-18.68,2s-13.46-8.33-23-9.78-10.49,5-20.61,5.34-32.69-.34-42-2.73-20.24-3.07-34.25-3.07-27.07-3-31.91-4.09c-10.17-2.21-11.68-3.41-30.36,4.09-9.9,4-98.7-4.18-188.77,14.09-30.81,6.25-83.74,4-108.85-5s-69-11.13-80.69-13.86-21-2.39-30.36-2S292.87,10.38,282,7.31a45.42,45.42,0,0,0-28,.68c-7.78,2.73-35.81,7.85-45.92,8.53s-42-.68-42-.68a22.75,22.75,0,0,0-7.78,2c-3.11,1.71-18.68,3.41-26.47,1.71S104.49,8,95.93,3.55,73.36-1.23,71,2.87,67.91,9,59.34,12.08s-35,5.12-35,5.12S6.74,16.88,0,10.63V88.27Z"/></g></g></svg>