<svg xmlns="http://www.w3.org/2000/svg" xmlns:xlink="http://www.w3.org/1999/xlink" viewBox="0 0 645.7 127.8"><defs><style>.cls-1{fill:url(#linear-gradient);}</style><linearGradient id="linear-gradient" x1="576.24" y1="63.9" x2="40.32" y2="63.9" gradientUnits="userSpaceOnUse"><stop offset="0" stop-color="#e64435"/><stop offset="1" stop-color="#64118b"/></linearGradient></defs><title>bg8</title><g id="图层_2" data-name="图层 2"><g id="图层_1-2" data-name="图层 1"><path class="cls-1" d="M0,125.54S196.56,81.73,212.51,73s23.25-11.44,31.23-13.45A156.48,156.48,0,0,0,267,51.46c6-2.69,12-10.43,35.21-14.13s23.92-3.7,35.87-6.73S358,26.23,368.63,20.18s12-6.39,23.92-11.77S431.08,0,436.4,0s2.66,7.74,27.9,9.75,25.91,5.72,27.24,7.4,1.33,12.78,6.64,12.78,25.58,6.39,31.89,8.74S554,49.44,564,50.79s56.47,52.13,72.41,56.5S643,127.8,643,127.8L0,125.54"/></g></g></svg>