<svg xmlns="http://www.w3.org/2000/svg" xmlns:xlink="http://www.w3.org/1999/xlink" viewBox="0 0 501.83 214.33"><defs><style>.cls-1{fill:url(#linear-gradient);}</style><linearGradient id="linear-gradient" x1="636.16" y1="107.16" x2="31.51" y2="107.16" gradientUnits="userSpaceOnUse"><stop offset="0" stop-color="#e6652c"/><stop offset="1" stop-color="#8b0b6f"/></linearGradient></defs><title>bg9</title><g id="图层_2" data-name="图层 2"><g id="图层_1-2" data-name="图层 1"><path class="cls-1" d="M0,210.53s152.77-73.47,165.16-88.13,18.07-19.18,24.27-22.56A93.08,93.08,0,0,0,207.5,86.3c4.65-4.51,9.29-17.48,27.36-23.69s18.59-6.2,27.88-11.28S278.23,44,286.49,33.84s9.29-10.72,18.59-19.74S335,0,339.16,0s2.06,13,21.69,16.36S381,25.94,382,28.77s1,21.43,5.16,21.43S407.05,60.92,412,64.86s18.59,18,26.33,20.3,43.89,87.42,56.28,94.76,5.16,34.4,5.16,34.4L0,210.53"/></g></g></svg>