<svg xmlns="http://www.w3.org/2000/svg" viewBox="0 0 216.44 44.99"><defs><style>.cls-1{fill:#f6eadf;}</style></defs><title>bonus</title><g id="图层_2" data-name="图层 2"><g id="图层_1-2" data-name="图层 1"><path class="cls-1" d="M10.16,13.93V12.83H0v-.3H10.16V9.61H.67V9.24h9.49V6.57H.36V6.2h5V3q0-1.95-.06-2.92L7.48.3c.16,0,.24.06.24.18s-.2.43-.61.55V6.2H9.85l.55-1.09,1.95.79c.12,0,.18.1.18.3s-.2.47-.61.67V9.3q0,2.13.06,3.89a.49.49,0,0,1-.37.61h-.12A9.06,9.06,0,0,1,10.16,13.93ZM.79,1.52,1,1.4q3,1.1,3,2.8A1.18,1.18,0,0,1,2.92,5.47q-.49,0-.67-.61A9.25,9.25,0,0,0,.79,1.52Zm8.88-.18,2,1c.16.08.24.18.24.3q0,.43-.85.43A16.77,16.77,0,0,1,7.91,5.9l-.24-.18A17.08,17.08,0,0,0,9.67,1.34Z"/><path class="cls-1" d="M15.14,12.47q.06-2.13.06-4.56V1.28l1.95.43h.55l.49-.85,1.52.61c.16.08.24.18.24.3s-.18.45-.55.61V5.23A19.24,19.24,0,0,0,21.77.06l1.89.49c.16,0,.24.06.24.18s-.2.39-.61.43c-.12.24-.24.47-.37.67h1.4L25,1l1.82,1a.41.41,0,0,1,.18.37c0,.28-.26.41-.79.37a14.68,14.68,0,0,1-1.88,1.52h2.19l.55-.85,1.64.67c.16.08.24.18.24.3s-.18.41-.55.61v.85q0,1.09.06,2.37a.39.39,0,0,1-.36.43,3.82,3.82,0,0,1-1.22.18V8h-2a2.16,2.16,0,0,1-.18.61l1.64.18c.16,0,.24.12.24.24s-.16.34-.49.43V11.8q-.06.55.55.49h.43q.61.06.85-.73l.67-1.88.24.06.06,1.7a.78.78,0,0,0,.3.73.52.52,0,0,1,.3.43q-.06,1-2,1H26q-1.52.12-1.46-1.4v-3q-1,3.28-6,5l-.18-.3Q22.56,11.43,23.17,8H21.83v.79a.33.33,0,0,1-.3.43,6.76,6.76,0,0,1-1.22.12q.06-1,.06-2.13V4.93c-.24.2-.53.43-.85.67l-.12-.12v1q0,1.64.06,4.5a.52.52,0,0,1-.37.55,5.25,5.25,0,0,1-1.16.12v-1H16.66v1.16q0,.49-.3.55A4.68,4.68,0,0,1,15.14,12.47Zm2.8-10.4H16.66V5.9h1.28ZM16.66,6.33v3.89h1.28V6.33Zm6.08-4.14A9.59,9.59,0,0,1,21.41,4l.85.24h1.46l.85-2.07Zm.55,5.47a16.48,16.48,0,0,0,.24-3h-1.7v3Zm3.59-3h-1.7a29.18,29.18,0,0,1-.24,3h1.95Z"/><path class="cls-1" d="M33.21,14q.12-2.13.12-5.6V8.09a21.31,21.31,0,0,1-1.76,1.58q0,.67-.36.73a.24.24,0,0,1-.24-.18L30.1,8.15a13.08,13.08,0,0,0,3.22-1.09V2.13q-.06-1.46-.06-2L35.33.3q.24,0,.24.18c0,.24-.2.43-.61.55V7.91q0,3.1.06,5.53a.43.43,0,0,1-.37.49A4.48,4.48,0,0,1,33.21,14ZM31.32,5.66a9.42,9.42,0,0,0-.79-3l.18-.12Q32.9,4,32.84,5.11t-1,1.16C31.58,6.22,31.4,6,31.32,5.66ZM41.9,1.89,42.57,1l1.82,1a.29.29,0,0,1,.24.3q-.06.36-.79.49a12.61,12.61,0,0,1-8.51,4.74l-.12-.3a20.37,20.37,0,0,0,3.53-1.82A.62.62,0,0,1,38.19,5a3.24,3.24,0,0,0-.49-1.28,11.9,11.9,0,0,1-2.07,1.64l-.18-.18A15.18,15.18,0,0,0,38.07,0L40,.55c.2,0,.3.08.3.24s-.26.41-.79.49a1.42,1.42,0,0,0-.18.3,2.78,2.78,0,0,0-.18.3Zm1,6.2.73-1L45,8c.12.12.18.2.18.24s-.14.24-.43.24H42.87v.79q0,1.82.06,3Q43,13.74,40.38,14q0-1.28-2-1.52l.06-.37,1.82.12q1,.12.91-.79v-3h-5.9V8.09h5.9q0-.55-.06-2.13l2.13.18a.24.24,0,0,1,.24.18c0,.28-.24.47-.61.55V8.09Zm-5.47,3.1a4.85,4.85,0,0,0-1-2.25l.12-.12q2.55.79,2.49,1.88t-1,1.16Q37.58,11.86,37.46,11.19Zm1.4-8.94a7.56,7.56,0,0,1-.79,1.09q1.64.24,1.7,1a1.37,1.37,0,0,1-.06.43A15,15,0,0,0,42,2.25Z"/><path class="cls-1" d="M47.38,13q.06.85-.37.85c-.12,0-.2-.08-.24-.24l-1-1.83a7.86,7.86,0,0,0,2.13-.91V6.2h-2V5.84h1.7l.55-1,1.76.73a.29.29,0,0,1,.24.3q0,.3-.55.67v3.71q-.31,1.7,5.17,1.64a51.91,51.91,0,0,0,5.9-.43v.3q-.79.24-.91,1.52a3.62,3.62,0,0,0-.55.06q-2.13.12-3.34.12Q50,13.68,49,11.19A11.64,11.64,0,0,1,47.38,13ZM48,3.16A11.1,11.1,0,0,0,46.83.43L46.95.3q3.1.85,3,2.19a1.18,1.18,0,0,1-1.22,1.28Q48.17,3.83,48,3.16ZM56,.06l1.88.55a.22.22,0,0,1,.24.24c0,.24-.16.39-.61.43a10,10,0,0,1-1.58,1.88h1.34l.85-1.09,1.4,1a.2.2,0,0,1,.12.18q0,.18-.37.24H55.65v.79a9.3,9.3,0,0,1-.18,1.95h1.95l1-1.28L60.15,6.2a.36.36,0,0,1,.06.24c0,.12-.12.18-.37.18H55.4a2,2,0,0,1-.12.73q4,1.22,4,2.55-.06,1.09-1,1.22-.43.06-.73-.55a7.8,7.8,0,0,0-2.49-2.8q-.85,2.55-4.38,3.59l-.18-.3q3-1.88,3.22-4.44H50.48V6.26h3.34a12.9,12.9,0,0,0,.12-1.82V3.53H51V3.16h4.26A20.93,20.93,0,0,0,56,.06ZM52,.3l.12-.12q2.37.61,2.31,1.7a1,1,0,0,1-1.09,1c-.28,0-.47-.18-.55-.55A6.4,6.4,0,0,0,52,.3Z"/><path class="cls-1" d="M62.88,11.37v-.85q0-1.4-.06-2.62l2.07.24a.16.16,0,0,1,.18.18c0,.16-.2.34-.61.55v3.28h3.41V6.26H65.13l-.67.85Q63.55,6.57,63,6.2c-.12,0-.18-.1-.18-.18s.06-.1.18-.18a.93.93,0,0,0,.3-.67V1.76l2,.18c.16,0,.24.1.24.18,0,.24-.2.43-.61.55V5.9h2.92V4.62q0-2.49-.06-4.38l2.13.18c.16,0,.24.06.24.18s-.2.43-.61.55V5.9h3V4.38q0-1.7-.06-2.62l2.07.18c.16,0,.24.06.24.18s-.2.43-.61.55V3.83q0,1.83.06,3a.39.39,0,0,1-.37.43q-.67.06-1.34.06V6.26h-3v5.9H73V10.58Q73,9.24,73,8L75,8.15c.16,0,.24.06.24.18s-.2.43-.61.55v.91q0,2.55.06,3.53c0,.2-.12.32-.37.37A7.47,7.47,0,0,1,73,13.8V12.53H64.71l-.67.73q-.79-.36-1.64-.79c-.16-.16-.16-.3,0-.42C62.72,11.84,62.88,11.62,62.88,11.37Z"/><path class="cls-1" d="M83.13,8l2.13.3c.16,0,.24.06.24.18q0,.43-.61.55a.47.47,0,0,1-.06.18.56.56,0,0,1-.06.24h3.59L89.46,8l1.88,1.34a.2.2,0,0,1,.12.18c0,.12-.14.2-.43.24H85.38q2,1.95,6.2,2.13v.3q-.91.12-1.4,1.7A6.3,6.3,0,0,1,84.9,9.79h-.3q-1.1,3.83-7.6,4.32l-.06-.3q4.14-1.22,5.35-3.16a8.14,8.14,0,0,0,.43-.85H77.3V9.43h5.53A4.1,4.1,0,0,0,83.13,8Zm-4.5-.91c0,.49-.12.75-.37.79s-.2-.08-.24-.24l-.91-2a21.16,21.16,0,0,0,4-1V.18L83,.37a.24.24,0,0,1,.24.18c0,.28-.24.47-.61.55V7.78a.43.43,0,0,1-.37.49A6.5,6.5,0,0,1,81,8.39q0-.67.06-1.82V5.29A10.64,10.64,0,0,1,78.63,7.05Zm-.91-5.72.18-.12q2.49,1,2.43,2.07a1,1,0,0,1-1,1.09.59.59,0,0,1-.61-.55A7,7,0,0,0,77.72,1.34Zm10.64.55L89,1l1.95,1a.49.49,0,0,1,.24.37q0,.43-.79.61a8.82,8.82,0,0,1-7.18,5l-.12-.24a15.86,15.86,0,0,0,3.28-2.13.67.67,0,0,1-.3.06c-.28,0-.47-.18-.55-.55a4.16,4.16,0,0,0-.73-1.34,7.1,7.1,0,0,1-1.7,1.46l-.18-.24A14.44,14.44,0,0,0,85.08.12L86.9.55q.24.06.24.24-.06.43-.67.43c-.12.24-.24.47-.36.67Zm-2.49.36a12.9,12.9,0,0,1-.73,1.09Q87,3.59,87,4.56a1.16,1.16,0,0,1-.06.36,7.56,7.56,0,0,0,1.64-2.68Z"/><path class="cls-1" d="M106,6.45a9.93,9.93,0,0,1-6-4.93,14,14,0,0,1-7.36,5.66l-.18-.3A16.15,16.15,0,0,0,98.52,0l2.07.49c.16,0,.24.12.24.24s-.21.39-.61.43l-.06.06a13.08,13.08,0,0,0,7.24,3.22l-.06.3A2,2,0,0,0,106,6.45ZM103.57,8l1-1.34,1.76,1.28a.2.2,0,0,1,.12.18c0,.12-.16.2-.37.24h-5.41V13h3.22l1.1-1.34,1.88,1.22a.25.25,0,0,1,.12.24c0,.16-.14.24-.43.24H92.92V13h6V8.33H93.59V8h5.35V5.72H96.39V5.29h4.32l.91-1.16,1.52,1.09a.25.25,0,0,1,.12.24c0,.12-.14.2-.43.24h-2.19V8ZM94.75,9.06l.18-.18q2.74,1.16,2.74,2.55a1.17,1.17,0,0,1-1.09,1.16.7.7,0,0,1-.67-.55A5.85,5.85,0,0,0,94.75,9.06Zm8.09-.18,2,.79c.16.08.24.18.24.3s-.18.37-.67.37a10.41,10.41,0,0,1-2.92,2.43l-.3-.18A10.24,10.24,0,0,0,102.84,8.88Z"/><path class="cls-1" d="M110.74,11.68c0,.49-.06.75-.3.79a.58.58,0,0,1-.3-.24l-1-2a1.07,1.07,0,0,0,.79-1.09V3.47q0-1.09-.12-3l2.13.24a.16.16,0,0,1,.18.18q.06.3-.49.49V9.43l5-2.25.24.24A55.44,55.44,0,0,1,110.74,11.68ZM118.65.37,121,.61c.2,0,.3.08.3.24s-.22.49-.67.61q.06,5.6-1.4,8.09,3,1.1,3.1,2.74A1.38,1.38,0,0,1,121,13.62q-.61,0-.79-.85a7.43,7.43,0,0,0-1.34-2.86q-1.58,2.61-7,4.14l-.18-.3a12.61,12.61,0,0,0,5.53-4.32q1.58-2.31,1.52-6.69A17.14,17.14,0,0,0,118.65.37Zm-5.84,1.09.18-.12q3.16,1.16,3.16,2.74A1.25,1.25,0,0,1,115,5.35a.85.85,0,0,1-.79-.61A7.06,7.06,0,0,0,112.81,1.46Z"/><path class="cls-1" d="M123.51,13.87q4-4.07,3.77-12.16h-2.92V1.28h7.54l.55-.85,1.7.79c.16.08.24.18.24.3s-.22.43-.67.55l-.85,3.1h1.46l.67-.91,1.89,1c.16.08.24.18.24.3s-.26.41-.79.49a14.69,14.69,0,0,1-2.68,4.5,13.58,13.58,0,0,0,4.8,1.4l-.06.37A2,2,0,0,0,137,13.87a14.35,14.35,0,0,1-4.74-2.07A17.64,17.64,0,0,1,125.77,14l-.12-.3a18,18,0,0,0,5.47-3,12.52,12.52,0,0,1-2.31-5.23A10,10,0,0,1,123.7,14Zm7.85-9.43.73-2.74H129q0,.49-.06,1.34V4.26a13.16,13.16,0,0,0,3.28,5.35,12.85,12.85,0,0,0,2.37-4.08H133l-.55.73a9.76,9.76,0,0,1-1.58-.85.23.23,0,0,1,0-.37A1.17,1.17,0,0,0,131.36,4.44Z"/><path class="cls-1" d="M140.91,14q.12-2.37.12-5.6V6.14A17.63,17.63,0,0,1,139.39,8l-.24-.24A27.14,27.14,0,0,0,141.82.12l2.13.55a.22.22,0,0,1,.24.24q0,.36-.67.37-.61,1.46-1.16,2.74l.67.06q.24,0,.24.18c0,.24-.2.43-.61.55v8.58q0,.48-.37.55A8.52,8.52,0,0,1,140.91,14Zm10.52-2a.71.71,0,0,0,.85-.67l.61-2.25.3.06.06,1.95a.88.88,0,0,0,.37.79.7.7,0,0,1,.3.55q-.18,1-2.25,1.09h-1.76q-1.58.06-1.52-1.64V5.17h-.55q-.24,6.33-4.68,8.82l-.24-.18a13.54,13.54,0,0,0,3.22-8.63h-2.55V4.8h2.55q.06-.73.06-1.64a23.62,23.62,0,0,0-.06-3l2.13.18a.28.28,0,0,1,.3.18q0,.36-.61.55,0,2.68-.06,3.71h3.16L152,3.59l1.52,1.16a.19.19,0,0,1,.12.18c0,.12-.12.2-.37.24H150v6.38q0,.49.55.49ZM148.94,1.16l.12-.12q2.86.43,2.74,1.64-.06,1-1,1.09a.68.68,0,0,1-.67-.55A5,5,0,0,0,148.94,1.16Z"/><path class="cls-1" d="M161.22.06l2.07.24q.24,0,.24.18c0,.24-.2.43-.61.55v.55h3.89L167.73.3l1.64,1.16a.24.24,0,0,1,.12.24c0,.12-.14.2-.43.24h-6.14V3.1h2.55l.61-1,1.64.67a.34.34,0,0,1,.3.36q-.06.37-.61.67V4.5q0,.91.06,1.95,0,.43-.36.43a4,4,0,0,1-1.28.18V6.69h-2.92V8h2.62a.67.67,0,0,0-.24-.12,12.49,12.49,0,0,0-1.09-.73l.12-.12q4.26.36,4.14,1.7-.06,1-.85,1.09a.59.59,0,0,1-.55-.36,7,7,0,0,0-.91-1q-3.53.55-9.24,1-.06.55-.37.55c-.12,0-.18-.08-.18-.24l-.55-1.88q3.34.12,5.47.12V6.69h-2.92v.18a.32.32,0,0,1-.37.37,3.84,3.84,0,0,1-1.22.18q.06-1,.06-2.37v-1c0-.53,0-1-.06-1.52l2.13.55h2.37V1.95H155V1.58h6.26V.79A6.32,6.32,0,0,1,161.22.06Zm-4.14,9.79h.18a5.55,5.55,0,0,1,.24,1.64,1.54,1.54,0,0,1-1.46,1.64.91.91,0,0,1-.91-.85,1.06,1.06,0,0,1,.67-.91A2.35,2.35,0,0,0,157.08,9.85Zm1.28-6.39V4.68h2.92V3.47Zm0,1.64V6.33h2.92V5.11Zm5,7.18a.91.91,0,0,0,1-.61L165,10.1l.3.06.06,1.28a.71.71,0,0,0,.3.67.55.55,0,0,1,.3.49q-.06,1-2.25,1h-3.53q-1.7.06-1.64-1.46V9.67l2,.18a.16.16,0,0,1,.18.18c0,.2-.18.37-.55.49v1q-.06.79.79.73Zm-2.31-3,.12-.12q2.43.43,2.49,1.58a.9.9,0,0,1-.91,1,.55.55,0,0,1-.61-.55A4.22,4.22,0,0,0,161,9.24Zm4.8-5.78h-2.92V4.68h2.92Zm-2.92,1.64V6.33h2.92V5.11Zm3,4.74.12-.18q2.8.73,2.8,1.95a1,1,0,0,1-1,1.09.6.6,0,0,1-.67-.43A5.33,5.33,0,0,0,165.9,9.85Z"/><path class="cls-1" d="M181.65,3.53l1-1.22,1.52,1.16a.25.25,0,0,1,.12.24c0,.12-.14.18-.43.18h-6.08a10.88,10.88,0,0,1-.85,1.95H182l1-1.34,1.76,1.28a.2.2,0,0,1,.12.18c0,.2-.2.3-.49.3h-4.62a10.82,10.82,0,0,0,5.23,1.89l-.06.37a2.12,2.12,0,0,0-1.28,1.7,7.29,7.29,0,0,1-1.95-1l-.06.06q-.06,1.28-.24,2.62-.12,2-2.92,2.19.06-1.34-1.82-1.52l.06-.37,1.95.12a.81.81,0,0,0,1-.79A17.83,17.83,0,0,0,180,8.88h-2.74q-.49,4.32-6.51,5.23l-.12-.3q4.44-1.64,4.8-4.93h-1.7a22.57,22.57,0,0,1-3.22,1.46l-.12-.3a17.65,17.65,0,0,0,4.32-3.77h-4V5.84H175a8.78,8.78,0,0,0,1-1.95H171.5V3.53h4.56a11.7,11.7,0,0,0,.61-3.47l2.19.24q.24.06.24.24c0,.28-.24.43-.61.43a17.07,17.07,0,0,1-.61,2.55h1.58a12.19,12.19,0,0,0,.79-2.86l1.82.55c.24,0,.34.08.3.24s-.24.45-.73.49A6.83,6.83,0,0,1,180,3.53ZM172.9.85l.18-.12q2.31.61,2.19,1.7a1,1,0,0,1-1,1q-.49,0-.61-.61A4.26,4.26,0,0,0,172.9.85Zm6.87,7.6.43-.79q-.18-.24-.55-.85a5.82,5.82,0,0,0-.3-.55h-2.68a7.49,7.49,0,0,1-2.31,2.19Z"/><path class="cls-1" d="M186.82,11a2.82,2.82,0,0,0,1.46-2.13h.24a5.21,5.21,0,0,1,.24,1.82q-.06,2.13-1.58,2.19a.87.87,0,0,1-.91-1A.86.86,0,0,1,186.82,11Zm1-3q.12-2.31.12-2.92V3.59c0-.53-.06-.89-.06-1.09l2.25.55h3.65a9.17,9.17,0,0,0,.85-3l2.07.55c.16,0,.24.12.24.24s-.2.39-.61.43A15.66,15.66,0,0,1,194.49,3h2.25l.55-1,1.76.67c.16.08.24.18.24.3s-.22.49-.67.73V5.59c0,.77.06,1.34.06,1.7s-.06.45-.3.49a8.09,8.09,0,0,1-1.34.12V7.05h-7.42v.37a.42.42,0,0,1-.37.49A8.41,8.41,0,0,1,187.86,8ZM189.62.3l.18-.24q2.55.49,2.55,1.64a1.09,1.09,0,0,1-1,1.16q-.61.06-.73-.61A3.7,3.7,0,0,0,189.62.3ZM197,3.41h-7.42V6.69H197ZM194.73,12a.75.75,0,0,0,.91-.67l.67-1.76h.24l.12,1.58a1.5,1.5,0,0,0,.36.67.52.52,0,0,1,.37.55q-.18,1-2.25,1h-3.89q-1.46.06-1.4-1.58v-1.7q0-1.34-.06-1.88l2.07.18c.16,0,.24.06.24.18s-.2.43-.61.55v2q-.06.91.91.85Zm-2.8-4.5.18-.12Q195,8.21,195,9.61a1.13,1.13,0,0,1-1,1.22q-.55.06-.67-.61A5.67,5.67,0,0,0,191.93,7.54Zm5,1.22.18-.18q3.34,1.16,3.28,2.62-.06,1.22-1.09,1.28a.78.78,0,0,1-.79-.67A6.14,6.14,0,0,0,197,8.76Z"/><path class="cls-1" d="M203.24,14q.12-3.47.12-5.17V6a14.39,14.39,0,0,1-1.76,2l-.24-.24A27.69,27.69,0,0,0,203.61,2,8.07,8.07,0,0,0,204,.18V.06L206,.61c.2,0,.3.12.3.24s-.18.39-.67.43a20.19,20.19,0,0,1-1.16,2.86l.79.06c.16,0,.24.06.24.18s-.22.45-.67.61v8.33c0,.32-.06.51-.3.55A4.67,4.67,0,0,1,203.24,14Zm9.3-9.67.61-1,1.7.73c.16.08.24.18.24.3s-.2.43-.61.67v8l.61-.85,1.28.85a.47.47,0,0,1,.06.18c0,.16-.12.24-.36.24H205.49v-.37H207V7.3q0-1.95-.06-3.41l2,.49h.79l.06-1.82H206V2.19h3.77V.12l2,.18a.16.16,0,0,1,.18.18c0,.24-.2.43-.61.55V2.19h2.31l.85-1.09,1.46,1a.2.2,0,0,1,.12.18c0,.12-.14.2-.43.24h-4.38l-.06,1.82Zm.3.37h-4.32V6.63h4.32ZM208.53,7V8.82h4.32V7Zm0,2.19V11h4.32V9.18Zm0,2.25v1.7h4.32v-1.7Z"/><path class="cls-1" d="M43.83,34.72,45.13,33l2.05,1.62a.44.44,0,0,1,.22.43c0,.22-.22.36-.65.43H43.29V40a27.56,27.56,0,0,0,8.22.86,85.83,85.83,0,0,0,9.3-.43L60.7,41a3.22,3.22,0,0,0-1.84,2.7H51.51Q39.94,44,38.32,37.75a14.51,14.51,0,0,1-3.57,6.92l-.43-.22A33.77,33.77,0,0,0,36,34.72q0-1.3-.11-2.81l3.57.43c.29,0,.43.11.43.32,0,.43-.36.72-1.08.87a6.63,6.63,0,0,1-.11,1c-.07.94-.15,1.62-.22,2.05a13.76,13.76,0,0,0,1.95,2.16V30.29H35v-.65h5.19V25.42H35.72v-.54h4.43v-2.7Q40,20.77,40,19.8l3.57.32q.33.11.33.32c0,.43-.36.76-1.08,1v3.46h.43l1.3-1.95L47,24.66c.22.22.29.36.22.43s-.22.32-.65.32H42.86v4.22h.86l1.41-1.84,2.16,1.62a12.49,12.49,0,0,0,2.59-6.92H47v-.65H56l1-1.62,2.81,1.19c.29.07.43.22.43.43s-.36.76-1.08,1.19q-.11.76-.22,2.59,0-.54-.11.86-.11,3.57-4.22,3.78.11-1.95-2.59-2.38l.11-.54,2.16.22Q56,27.8,56,26.18c.07-.79.11-1,.11-.76q.11-2.16.22-2.92H52.7q-.22,5.95-4.76,8.22l3.35.86h4.22l.87-1.51,2.92,1.08c.29.15.43.32.43.54s-.36.76-1.08,1.19v2.49q.11,2.16.11,3.35,0,.43-.54.65a11.54,11.54,0,0,1-2.27.22V38.07h-5.3v.65q0,.76-.54.87a13.16,13.16,0,0,1-2.38.22q.11-1.3.11-4.54V30.72l-.65.32a10.75,10.75,0,0,1-1.3.65l-.32-.43a9.39,9.39,0,0,0,.87-1H43.29v4.43Zm12.11-2.49h-5.3v5.19h5.3Z"/><path class="cls-1" d="M65,42.5c.07.94-.11,1.41-.54,1.41a.64.64,0,0,1-.54-.32l-1.73-3.13A19.78,19.78,0,0,0,66,38.72V30.83H62.32v-.65h3l1.08-1.73,3.35,1.3a.64.64,0,0,1,.32.54q.11.65-1.19,1.3v6.05q0,3.14,9.19,3.14a91.8,91.8,0,0,0,10.49-.65v.65a3.53,3.53,0,0,0-1.95,2.7,11.57,11.57,0,0,0-1.41.11q-3.35.11-5.73.11-9.73.33-11.67-4.43A12.38,12.38,0,0,1,65,42.5Zm1.19-17.19a10.17,10.17,0,0,0-2.05-4.54l.22-.32q5.08,1.3,5,3.78-.11,2.05-1.95,2.16A1.27,1.27,0,0,1,66.21,25.31Zm17.73.22,1.51-1.95,2.49,1.84c.22.07.29.18.22.32s-.22.36-.65.43H83v4.54q.11,3.24.11,5.62.11,3.24-4.65,3.68.32-2.49-3.68-3.14l.11-.54,3.35.11Q80,36.45,80,35V26.18H70.54v-.65H80q0-3.67-.11-5.62l3.89.32a.38.38,0,0,1,.43.43q-.11.65-1.3,1v3.89ZM72,28l.32-.22q4.54,1.62,4.65,3.89Q76.91,33.85,75,34q-.87,0-1.19-1.19A12,12,0,0,0,72,28Z"/><path class="cls-1" d="M110.1,41.53,111.94,39l3.35,2.49c.14,0,.22.11.22.32s-.22.22-.65.22H90.43v-.54Zm-.87-18.27L111,21l3,2.27c.21.07.29.18.21.32s-.21.36-.65.43H91.72v-.76Zm-1.51,8.65,1.62-2.16,3.13,2.16a.35.35,0,0,1,.21.32q0,.33-.76.43H93.35v-.76Z"/><path class="cls-1" d="M136.26,44.56v-2.7H124.7v1.51q0,.86-.65,1a9.43,9.43,0,0,1-2.49.32V40.56q.11-3.24.11-5.19V31.47q0-.75-.11-2.27V27.26l4.32,1H127q.65-3.57.76-5.19h-9.84v-.65h20.43l1.95-2.59,3.46,2.38a.44.44,0,0,1,.22.43c0,.22-.25.36-.76.43H132.37a29.66,29.66,0,0,1-4.11,5.19h7.35l1.08-1.84,3.35,1.3a.51.51,0,0,1,.43.54q0,.65-1.08,1.3v4.11q0,7.14.11,9.62,0,.86-.65,1A11.63,11.63,0,0,1,136.26,44.56Zm0-15.67H124.7v5.84h11.57ZM124.7,35.37V41.2h11.57V35.37Z"/><path class="cls-1" d="M145.56,44.45q7.89-6.59,7.46-20.86h-7.67v-.76h20.86L168,20.45l3.24,2.27a.35.35,0,0,1,.22.32c0,.36-.29.54-.87.54H156.26a50,50,0,0,1-.32,5.95h7.78l1.08-1.95,3.24,1.3a.6.6,0,0,1,.54.65q0,.65-1.19,1.41a70.28,70.28,0,0,1-.54,8.22q-.33,5.08-6.27,5.3.22-2.59-4.43-3.35l.11-.65,4.65.32q2.7,0,2.92-2.05a74.36,74.36,0,0,0,.54-8.54h-8.54Q155.07,41,146,45Z"/><path class="cls-1" d="M179.51,37.21h-.87a41.32,41.32,0,0,0-1.19-10.05c-.07-.29-.14-.65-.22-1.08a17.62,17.62,0,0,1-.43-2.59q0-1.95,2.27-1.95t2.27,1.73a15.87,15.87,0,0,1-.32,2.27l-.32,1.62A62.24,62.24,0,0,0,179.51,37.21Zm-.43,2.49A2,2,0,0,1,181.24,42q-.11,1.84-2.16,1.95Q177,43.8,176.91,42,176.91,39.69,179.07,39.69Z"/></g></g></svg>