<svg xmlns="http://www.w3.org/2000/svg" viewBox="0 0 172.75 31.91"><defs><style>.cls-1{fill:#f6eadf;}</style></defs><title>dinner-time</title><g id="图层_2" data-name="图层 2"><g id="图层_1-2" data-name="图层 1"><path class="cls-1" d="M7.16,8.9l.4.06L7,12.42H0A7.21,7.21,0,0,1,3.41,6.88,4.1,4.1,0,0,0,5.55,3.35Q5.49,1.21,3.64,1.1A2,2,0,0,0,2.08,2a.75.75,0,0,0,.06.75,1.15,1.15,0,0,1,.17.69q-.06.93-1.1,1a.92.92,0,0,1-1-1Q.52.87,3.7.63,7.16.81,7.4,3.58q.12,2.43-3.24,4A5.55,5.55,0,0,0,1.21,10.8H5.08Q6.65,10.86,7.16,8.9Z"/><path class="cls-1" d="M13.12.63q3.81.23,3.93,6,0,6.12-3.93,6.12T9.19,6.59Q9.3.87,13.12.63Zm0,.46Q11,1.16,11,6.59q-.06,5.78,2.08,5.66,2.14.17,2.08-5.66Q15.2,1,13.12,1.1Z"/><path class="cls-1" d="M25.07,12.42h-5V12q1.68.12,1.62-1.79V3.58q.12-1.73-1.44-1.68V1.44L23.51.69v9.47q-.06,1.91,1.56,1.79Z"/><path class="cls-1" d="M28.71,4.79l-.4-.06.4-3.81h7V2a17.38,17.38,0,0,0-3.29,9.71q0,1-1,1t-1-.81q.06-3.06,4.33-9.24h-4.1Q29.29,2.54,28.71,4.79Z"/><path class="cls-1" d="M39.46,4.85l2,.4H44V2.48H41.14A12.53,12.53,0,0,1,37.55,6l-.29-.17A14.6,14.6,0,0,0,40.21,0l2,.52c.23,0,.33.08.29.23s-.23.42-.69.58a.62.62,0,0,0-.12.23,1.88,1.88,0,0,0-.35.58h6.41l1-1.33,1.62,1.27c.12,0,.15.1.12.17s-.14.19-.4.23H45.58V5.26h2l.92-1.16L50,5.2a.19.19,0,0,1,.12.17c0,.12-.12.19-.35.23H45.58V9.24h2.6l1-1.33L50.9,9.13A.19.19,0,0,1,51,9.3c0,.19-.13.29-.4.29h-5q.06,1.85.06,3.12c.08.23,0,.38-.35.46h-.23a8.46,8.46,0,0,1-1.21.12q.06-1.39.06-3.7H37.15V9.24h2.37V8c0-.38,0-.94-.06-1.68ZM44,9.24V5.6H41.08V9.24Z"/><path class="cls-1" d="M55.87,12.25q2.19-.12,2.25-5.32a2.72,2.72,0,0,1-2.48,1.44q-3.12-.17-3.29-3.64Q52.63.87,56,.63q3.87.12,4,5.78,0,6.3-4.22,6.3-2.83-.12-3-2a1,1,0,0,1,1-1q.92.06,1,.87a.86.86,0,0,1-.23.64q-.17.17,0,.46A1.67,1.67,0,0,0,55.87,12.25ZM56.1,1.1q-1.85.23-2,3.58Q54.25,7.57,56,7.74q2.08-.11,2.14-3.29T56.1,1.1Z"/><path class="cls-1" d="M70.89,1.39l.58-1,1.79.69c.15.08.23.17.23.29s-.21.46-.64.69V4.22q0,2.95.12,6.88,0,1.85-2.72,2.14-.12-1.45-2.72-1.79l.06-.29,2.6.12q1,.06,1-.87V8.26H65.58a6.3,6.3,0,0,1-4.1,5l-.23-.17q2.95-2.54,2.83-7.86V3.7q0-2-.06-2.83l2.08.52Zm-5.08,3.7a19.06,19.06,0,0,1-.17,2.77h5.6V5H65.81Zm5.43-.46V1.73H65.81V4.62Z"/><path class="cls-1" d="M79,6.82V6.18q2.89-.35,2.89-2.77-.06-2.19-1.85-2.31A1.79,1.79,0,0,0,78.52,2a.75.75,0,0,0,.06.64.57.57,0,0,1,.17.58q-.06.75-.92.81a.89.89,0,0,1-.92-.92Q77.13.75,80.31.63q3.29.17,3.47,2.83-.12,2.37-3,3,3.18.46,3.24,3.18-.17,2.89-3.93,3.06-3.24-.12-3.41-2.2a1,1,0,0,1,1-1q.92.06,1,.87a.77.77,0,0,1-.29.63.43.43,0,0,0,0,.52,1.8,1.8,0,0,0,1.62.69q2.08-.12,2.14-2.54Q82.1,6.93,79,6.82Z"/><path class="cls-1" d="M89.78.63q3.81.23,3.93,6,0,6.12-3.93,6.12T85.85,6.59Q86,.87,89.78.63Zm0,.46q-2.08.06-2.08,5.49-.06,5.78,2.08,5.66,2.14.17,2.08-5.66Q91.86,1,89.78,1.1Z"/><path class="cls-1" d="M104.92,13.06V11.9H98.85v.64q.11.46-.35.52a6.39,6.39,0,0,1-1.44.17q.11-3.24.12-6.47V4.28q0-.46-.06-2V.75l2.2.58h5.26l.58-1L107,1c.15.08.23.17.23.29q0,.41-.58.75V6.53q0,4.56.06,5.83,0,.52-.35.58A7.08,7.08,0,0,1,104.92,13.06Zm0-11.32H98.85V6.35h6.07Zm-6.07,5v4.85h6.07V6.7Z"/><path class="cls-1" d="M124,15.14l-.23.17a9.81,9.81,0,0,1-3.35-7.51A10.14,10.14,0,0,1,123.81.23L124,.4A12.68,12.68,0,0,0,122,7.8,12.41,12.41,0,0,0,124,15.14Z"/><path class="cls-1" d="M126.82,6a18.27,18.27,0,0,0,.12-2.31V2.54q0-.92-.06-2l2,.52h5.89l.58-.92L137,.75c.15.08.23.17.23.29s-.17.44-.64.63V4.1q.06.93.06,1.33a.31.31,0,0,1-.29.4,7.67,7.67,0,0,1-1.27.12V5.2h-6.59v.23a.37.37,0,0,1-.35.4,1.08,1.08,0,0,1-.35.06l1.56.35c.15,0,.23.12.23.23s-.19.37-.58.4a6.4,6.4,0,0,1-.46.87H131q0-1.27-.06-2.08l2,.17c.12,0,.17.1.17.17,0,.23-.19.4-.58.52V7.74h2.6l.93-1.21,1.56,1.1a.19.19,0,0,1,.12.17c0,.19-.14.29-.4.29h-4.8V9.88h2.14l.92-1.16,1.44,1.1a.19.19,0,0,1,.12.17c0,.12-.14.19-.4.23h-4.22v1.91H136l.92-1.1,1.68,1.1c.08.08.12.13.12.17s-.14.23-.4.23H125v-.4H131V10.23h-4V9.88h4V8.09h-2.66a10.81,10.81,0,0,1-2.72,2.77l-.29-.17a16.7,16.7,0,0,0,1.73-3.41A4.51,4.51,0,0,0,127.45,6Zm8.26-4.56h-6.59V2.95h6.59Zm-6.59,1.91V4.85h6.59V3.29Z"/><path class="cls-1" d="M141.78,9.65l1.67.75a.34.34,0,0,1,.17.29c0,.23-.23.33-.58.29a8.85,8.85,0,0,1-3.29,2.2l-.17-.17A11.48,11.48,0,0,0,141.78,9.65Zm6.07-6V.87l1.79.46H151l.52-.87L153.1,1c.15.08.23.17.23.29s-.19.41-.58.64V5q.06,2.6.17,6.53,0,1.44-2,1.68.06-1.1-1.85-1.33l.06-.29,1.39.06c.5,0,.75-.21.75-.64V7.92h-2.08a6.5,6.5,0,0,1-3.41,5.43l-.17-.17a8.7,8.7,0,0,0,1.91-4h-7.92v-.4h1.5V2.71h-1.33v-.4h1.33q0-1-.06-2l1.85.17c.15,0,.23.06.23.17s-.19.4-.58.52v1.1h2V1.44q-.06-.69-.06-1l1.85.12c.15,0,.23.1.23.17,0,.23-.19.4-.58.52v1.1h.23l.46-.69.92.69s.06.06.06.17-.12.19-.35.23H146V8.78h.12l.64-.87.92.69a18.61,18.61,0,0,0,.17-2.72Zm-3.29.81V2.71h-2V4.45Zm-2,.4V6.64h2V4.85Zm0,2.14V8.78h2V7Zm2.54,4.74a4.36,4.36,0,0,0-1.27-1.91l.12-.17q2.66.46,2.66,1.5a.87.87,0,0,1-.87.92A.65.65,0,0,1,145.13,11.73Zm4.22-6.07a14.48,14.48,0,0,1-.12,1.91h2.08V4.79h-2Zm2-4h-2V4.39h2Z"/><path class="cls-1" d="M165.24,4.22l1.16-1.5L168.3,4.1a.34.34,0,0,1,.06.23c0,.12-.12.19-.35.23H154.43V4.22Zm-7,1.45,2.25.63c.15,0,.23.12.23.23,0,.31-.23.46-.69.46a13.39,13.39,0,0,1-5.37,6.3l-.23-.23a20.67,20.67,0,0,0,3.24-5.43A13.33,13.33,0,0,0,158.25,5.66Zm2.08-2.72a6.68,6.68,0,0,0-1.1-2.77l.12-.12q3.06.69,3.06,2.14A1.34,1.34,0,0,1,161,3.58Q160.44,3.64,160.33,2.95Zm1.91,2.89.23-.17q4.68,3.18,4.85,5.66-.06,1.39-1.27,1.5c-.39,0-.62-.17-.69-.64A18.75,18.75,0,0,0,162.23,5.83Z"/><path class="cls-1" d="M169.22.4l.23-.23a9.91,9.91,0,0,1,3.29,7.63,9.78,9.78,0,0,1-3.29,7.51l-.23-.17A12.41,12.41,0,0,0,171.3,7.8,12.35,12.35,0,0,0,169.22.4Z"/><path class="cls-1" d="M28.71,23.06l.1-.15q2.11.57,2.06,1.54a1,1,0,0,1-.87,1,.55.55,0,0,1-.57-.51A4.05,4.05,0,0,0,28.71,23.06Zm2.67,3.81a6.55,6.55,0,0,0-.26,1.59,5.24,5.24,0,0,0,.15,1.29,5.38,5.38,0,0,1,.21,1,.9.9,0,0,1-.93,1q-.87,0-.87-.93a4.12,4.12,0,0,1,.05-.57,1.45,1.45,0,0,0,.05-.31,3.76,3.76,0,0,0,.15-1q.1-.87-1.18-1.29l.1-.26q1.29.36,1.44-.41l2-4.37.21.1Zm-1.7-6.43.1-.15q2.16.41,2.16,1.39a1,1,0,0,1-.87,1,.58.58,0,0,1-.57-.46A3.18,3.18,0,0,0,29.69,20.44Zm5.66,6.63,1.75.15a.18.18,0,0,1,.21.21c0,.17-.17.29-.51.36v.26a.84.84,0,0,0-.05.26H39.2l.67-.87,1.23.82c.07,0,.1.05.1.15s-.12.17-.36.21h-3.7a6.28,6.28,0,0,0,4.22,1.59l-.05.31q-.72.1-1.13,1.29a4.38,4.38,0,0,1-3.39-3.19h-.1q-.46,2.67-4.78,3.29l-.1-.26q3.08-1.29,3.45-3H32v-.31h3.29a5.88,5.88,0,0,0,.05-.82ZM35.09,20l1.65.15q.21.05.21.21t-.46.31a3.12,3.12,0,0,1-.82.82h3l.41-.67,1.39.51a.3.3,0,0,1,.15.26c0,.14-.1.31-.41.51v2.67q.05,1.44.05,1.9t-.26.46a3.76,3.76,0,0,1-1.08.15V21.83H34v5.25a.28.28,0,0,1-.26.36,6.69,6.69,0,0,1-1.08.1q.05-1,.05-3.19V21.11l1.49.36H35A4.45,4.45,0,0,0,35.09,20Zm-.93,6.94-.15-.1A11.19,11.19,0,0,0,35.5,24.5H34.26v-.26h1.65v-.77q0-.21-.05-.77V22l1.29.15c.14,0,.21,0,.21.1s-.1.31-.41.41v1.54h.57l.46-.62.82.57s.05.05.05.15-.1.15-.31.15H36.94v.36q1.7.31,1.7,1a.58.58,0,0,1-.57.67.44.44,0,0,1-.46-.31,2.17,2.17,0,0,0-.67-1.08,7,7,0,0,0,.05.72v.67c0,.21-.07.33-.21.36a2.92,2.92,0,0,1-.93.15q0-.82.05-1.49A8.46,8.46,0,0,1,34.16,26.92Zm.05-4.37.15-.1q1.23.31,1.29,1a.6.6,0,0,1-.57.62.32.32,0,0,1-.36-.36A2.5,2.5,0,0,0,34.21,22.55Zm3.39-.15.93.41a.14.14,0,0,1,.15.15c0,.17-.1.26-.41.26a5.24,5.24,0,0,1-1.08.88L37,24A6.39,6.39,0,0,0,37.61,22.4Z"/><path class="cls-1" d="M43.16,31.81q.1-1.65.1-3.75V24.76q0-2-.05-2.93L45,22c.14,0,.21.05.21.15s-.17.31-.51.41v6.69q0,1.34.05,2.06a.42.42,0,0,1-.36.41A3.43,3.43,0,0,1,43.16,31.81Zm1.59-11.67.05-.15q2.47.36,2.47,1.59a1,1,0,0,1-1,1q-.46.05-.57-.46A5.23,5.23,0,0,0,44.75,20.13Zm6.89,1.44H48.25v-.31h3.09l.46-.87,1.65.67a.24.24,0,0,1,.21.26q0,.31-.51.57V26q0,2.31.05,4.27,0,1.44-2.11,1.54.16-1.18-2-1.44l.05-.26,1.75.1c.51,0,.75-.15.72-.57Z"/><path class="cls-1" d="M66,21.88l.57-.82,1,.77a.21.21,0,0,1,.1.21c0,.1-.1.15-.31.15H64.19v.36A19.87,19.87,0,0,0,64.71,27c.07-.17.15-.41.26-.72a6.92,6.92,0,0,0,.26-.72,10.15,10.15,0,0,0,.41-2.11l1.54.41c.14,0,.21.1.21.21s-.21.31-.51.31a13,13,0,0,1-1.59,4.17,3.31,3.31,0,0,0,.51.82c.24.27.43.27.57,0L67,27.8l.26.05-.15,1.8a.66.66,0,0,0,.15.67.15.15,0,0,0,.05.1.56.56,0,0,1,.15.41q-.05.62-.77.67a3.45,3.45,0,0,1-2.42-1.7,10.09,10.09,0,0,1-3.5,2l-.15-.21a11.51,11.51,0,0,0,3.14-3,19.3,19.3,0,0,1-.87-6.33v-.1h-5.3v3.6h1.13v-.05a.4.4,0,0,0,.05-.15q.1-.51.26-1.54l1.54.21c.14,0,.21.1.21.21s-.19.31-.46.31q-.15.57-.31,1h.82l.41-.62,1.29.57c.14.07.21.15.21.26s-.17.31-.51.41a6.75,6.75,0,0,1-1,2.42q1,.41,1,1-.05.72-.62.77a.64.64,0,0,1-.57-.31L60.8,30a1.54,1.54,0,0,0-.31-.26A9.17,9.17,0,0,1,57,31.45l-.15-.26a9.75,9.75,0,0,0,2.67-2.06,5.07,5.07,0,0,0-1.65-.67,11,11,0,0,0,.67-2.16.86.86,0,0,0,.05-.21h-1a6.67,6.67,0,0,1-2.47,5.71l-.21-.15A12.22,12.22,0,0,0,56.27,25V23.94q0-1.13-.05-2.47l2,.41h4.68q0-.67-.1-1.9l1.7.15q.26,0,.26.21c0,.21-.22.36-.57.46v1.08Zm-5.14,1.75.62-.87,1.13.82a.17.17,0,0,1,.1.15c0,.1-.12.17-.36.21H57.92v-.31Zm-1.59,4.68a2.23,2.23,0,0,1,.41.05,1.73,1.73,0,0,1,.41.1A7.74,7.74,0,0,0,61,26.1H59.93A17.5,17.5,0,0,1,59.26,28.31Zm5.5-7.87.1-.15q1.49,0,1.49.77c0,.41-.29.63-.77.67a.49.49,0,0,1-.41-.36A2.33,2.33,0,0,0,64.76,20.44Z"/><path class="cls-1" d="M78,24.56v-.72H71.6V24q.16,5.45-3,7.87l-.21-.15a14.4,14.4,0,0,0,1.75-7.77v-.82q0-.93-.05-2.52l1.9.51h5.76l.46-.82,1.49.57c.14.07.21.15.21.26s-.15.41-.46.62V24a.44.44,0,0,1-.31.46A6.86,6.86,0,0,1,78,24.56Zm0-3.14H71.6v2.11H78Zm.36,3.45,1.44,1a.3.3,0,0,1,.15.26c0,.17-.1.26-.31.26a1.65,1.65,0,0,1-.41-.1,15.94,15.94,0,0,1-4.63,1.85v1.34c0,.38.24.57.72.57h2.78q.57.05.77-.62l.57-2,.26.05.1,1.59a.89.89,0,0,0,.31.72.61.61,0,0,1,.31.51q-.1.82-1.85.88H74.53q-1.39.1-1.29-1.34V26.56q-.05-1.39-.05-2.16l1.8.21c.14,0,.21.05.21.15s-.22.36-.57.46v2.52A11.37,11.37,0,0,0,78.39,24.87Z"/><path class="cls-1" d="M83.22,28.67l1.44.67c.14.07.21.15.21.26s-.24.28-.62.21a8.85,8.85,0,0,1-2.73,2l-.15-.21A9,9,0,0,0,83.22,28.67Zm5.14-7.46,1.59.41a9,9,0,0,0,2.83-1.44l1,1.08a.21.21,0,0,1,.1.26c0,.1-.09.17-.26.21a.68.68,0,0,1-.41-.15,17.33,17.33,0,0,1-3.5.46v2.67h2l.82-1,1.29,1a.17.17,0,0,1,.1.15c0,.1-.12.17-.36.21H92.43V28.1q.05,2.31.05,3.19c0,.24-.09.36-.26.36a4.72,4.72,0,0,1-1.13.15q.05-4,.05-4.68V25H89.75q.15,5.14-2.93,6.84l-.21-.15a8,8,0,0,0,1.59-3.45H81.47V28h1.23V22.4H81.63V22h1q0-1.28-.05-1.8l1.7.15c.14,0,.21.05.21.15s-.21.39-.51.46v1h1.65a6.11,6.11,0,0,1-.05-.93q-.05-.62-.05-.93l1.7.15c.14,0,.21.1.21.21s-.17.36-.51.46v1h.15l.46-.62.77.62c.07,0,.1.05.1.15s-.1.17-.31.21H86.93V28h.21l.57-.82.62.46a12.71,12.71,0,0,0,.15-2.06V23.89Q88.47,23,88.37,21.21ZM85.64,24V22.4H84V24ZM84,24.35V26h1.65V24.35Zm0,2V28h1.65V26.3Zm2.11,4.22A4.55,4.55,0,0,0,85,28.83l.1-.15q2.31.51,2.26,1.44a.73.73,0,0,1-.77.72A.6.6,0,0,1,86.1,30.52Z"/><path class="cls-1" d="M99.32,20.24l2,.21c.21,0,.29.07.26.21s-.17.38-.51.41q1,6.58,6,9l-.1.31a2.06,2.06,0,0,0-1.65,1.23q-3.91-2.62-4.42-9-.11,6.84-6.22,9.26l-.21-.26a10.83,10.83,0,0,0,4.89-8.74A13.41,13.41,0,0,0,99.32,20.24Z"/><path class="cls-1" d="M117.78,27.54l.82-1.13L120,27.49c.1,0,.14.09.1.15s-.12.17-.36.21h-2.93a7.65,7.65,0,0,1-1.13,1.75q2.93.31,2.88,1.34c0,.55-.22.86-.56.93a1.16,1.16,0,0,1-.77-.31,6.56,6.56,0,0,0-2.57-1q-1.8,1.23-6.33,1.34l-.1-.26a22,22,0,0,0,4.78-1.44q-1.19-.26-2.88-.46a.1.1,0,0,1-.05-.15,18.71,18.71,0,0,0,1.34-1.7h-3.6v-.31h3.81a2.16,2.16,0,0,1,.21-.41,8.09,8.09,0,0,0,.46-.82l1.49.41c.14,0,.21.1.21.21s-.21.29-.51.26a.15.15,0,0,0-.05.1,1.1,1.1,0,0,1-.21.26Zm-9.15-5.45a2.16,2.16,0,0,0,.88-1.34h.21a6.53,6.53,0,0,1,.26.87h3.55q-.31-.05-.36-.51a1.89,1.89,0,0,0-.51-1.08l.1-.1q2,0,2,.87a.92.92,0,0,1-.77.82h3.91l.62-.82,1.44.93A.45.45,0,0,1,120,22c0,.24-.24.34-.62.31l-.05.05a14.54,14.54,0,0,1-1.49.82l-.1-.1q-.05.21-.46.46V24q0,1.6.05,2.21,0,.36-.26.41a4.31,4.31,0,0,1-1.13.15v-.57h-4.27v.1a.44.44,0,0,1-.31.46,5.52,5.52,0,0,1-1.08.1q.05-.77.05-2.21V22.6l1.9.41h3.55l.41-.77,1.39.51.05.05a0,0,0,0,1,.05.05l.36-.93H110a1.7,1.7,0,0,1,.05.41,1.22,1.22,0,0,1-1.18,1.34c-.45,0-.69-.31-.72-.82Q108.11,22.45,108.63,22.09ZM116,23.32h-4.27v1.13H116Zm-4.27,1.44v1.18H116V24.76Zm.15,4.58c.24,0,.6,0,1.08.05a7.83,7.83,0,0,1,1.08.05,5.58,5.58,0,0,0,1.23-1.59h-2.21C112.67,28.36,112.28,28.86,111.87,29.34Z"/><path class="cls-1" d="M132,25.48a10,10,0,0,1-4.78-4.11,12.51,12.51,0,0,1-6.28,4.73l-.15-.21A19.25,19.25,0,0,0,125,21.83a9.42,9.42,0,0,0,.93-1.85l1.85.46c.14.07.21.15.21.26s-.15.34-.57.41a12.39,12.39,0,0,0,5.91,2.62l-.05.31A1.91,1.91,0,0,0,132,25.48Zm-1.39,1.39.82-1.13,1.44,1a.17.17,0,0,1,.1.15c0,.17-.14.26-.41.26h-5a26.39,26.39,0,0,1-3.19,2.67l5.09-.15a8,8,0,0,0-1.23-1.8l.15-.15q3.24,1.34,3.34,2.83a1.08,1.08,0,0,1-1,1.18.58.58,0,0,1-.57-.46,2.89,2.89,0,0,0-.41-1q-3,.62-6,1c-.07.38-.21.57-.41.57s-.17-.09-.21-.26l-.62-1.8a1.69,1.69,0,0,0,1.29-.36,12.89,12.89,0,0,0,1.44-2.31h-3.75v-.31Zm-2.78-2.21.77-.93,1.23.87a.17.17,0,0,1,.1.15c0,.1-.12.17-.36.21h-5.4v-.31Z"/><path class="cls-1" d="M144,21.21l.93-1.18,1.54,1.13a.16.16,0,0,1,.1.15c0,.14-.14.21-.41.21h-9.1v3a12.89,12.89,0,0,1-.57,4.42,7.22,7.22,0,0,1-2.16,2.88l-.26-.15a11.34,11.34,0,0,0,1.23-3.14,18.76,18.76,0,0,0,.31-3.86V22.45c0-.75-.05-1.34-.05-1.75l1.85.51Zm-2.67,8.43V24.81h-3.6v-.36h6.43l.87-1.13,1.49,1.08a.3.3,0,0,1,.05.21c0,.1-.12.17-.36.21h-3.39v1.44q0,2.62.05,4.11,0,1.23-2.26,1.44-.05-1-1.9-1.29l.05-.26,1.75.05C141.06,30.38,141.34,30.16,141.34,29.65Z"/></g></g></svg>