<svg xmlns="http://www.w3.org/2000/svg" viewBox="0 0 27.18 252.23"><defs><style>.cls-1{fill:#f6eadf;}.cls-2{fill:#3b2741;}.cls-3{fill:none;stroke:#f6eadf;stroke-miterlimit:10;stroke-width:0.5px;}</style></defs><title>dinner-2</title><g id="图层_2" data-name="图层 2"><g id="图层_1-2" data-name="图层 1"><circle class="cls-1" cx="14.45" cy="12.03" r="12.03"/><path class="cls-2" d="M16.78,18.55H14.45V14.66l4.66-6.35H8.86l4.66,6.35v3.89H11.2a.47.47,0,0,0-.47.47v.47h6.52V19A.47.47,0,0,0,16.78,18.55Z"/><path class="cls-2" d="M19.11,4.58a2.79,2.79,0,0,0-2.79,2.79h.93a1.86,1.86,0,1,1,1.86,1.86v.93a2.79,2.79,0,0,0,0-5.59Z"/><path class="cls-1" d="M.22,34.79l.22-.22q4.62.88,4.62,3a2.26,2.26,0,0,1-1.87,2.2q-1,.11-1.21-1A8.23,8.23,0,0,0,.22,34.79Zm5.72,8.58a11.6,11.6,0,0,0,0,5.5,7.07,7.07,0,0,1,.44,2,1.89,1.89,0,0,1-2,2,1.84,1.84,0,0,1-2-1.87,11,11,0,0,1,.33-1.87,1.77,1.77,0,0,1,.11-.44A15.72,15.72,0,0,0,3,47q.11-1.87-2.53-2.64l.22-.55q2.64.55,3.08-.88L8.25,32l.55.22ZM2,28.62l.33-.33Q7.15,29,7,31.15a1.89,1.89,0,0,1-1.76,2,1.21,1.21,0,0,1-1.21-.88A8.73,8.73,0,0,0,2,28.62Zm11.67,5.83V30.6H8.14v-.66h14l1.76-2.31L27,29.83a.35.35,0,0,1,.22.33c0,.22-.26.37-.77.44H20.69v4.51h1.43l1-1.65L26,34.57c.29.15.44.33.44.55s-.33.77-1,1.21v8.36q.11,4.84.11,7c0,.51-.18.81-.55.88a4.62,4.62,0,0,0-.77.11,9.32,9.32,0,0,1-1.65.22V50.52H11.67v1.32a.59.59,0,0,1-.55.77,9.2,9.2,0,0,1-2.42.33q0-1,.11-2.64.11-4.29.11-6.05V36.77q-.11-1.65-.11-2.42l3.63.77h1.21Zm6.93,8.69q-2.64.11-2.53-2.64V35.78H16.29q-.22,6.6-4.29,9.46l-.33-.33v1.21H22.56v-3h-2ZM11.67,44.8q2-3.19,2-9h-2Zm0,2V50H22.56V46.78Zm4.62-12.33v.66H18V30.6H16.29Zm6.27,1.32H20.69v3.74q-.11,1,1,.88h.88Z"/><path class="cls-1" d="M24,67.59a21.45,21.45,0,0,1-10.24-8.8A26.77,26.77,0,0,1,.33,68.92L0,68.47a41.17,41.17,0,0,0,9-8.69,19.87,19.87,0,0,0,2-4l4,1c.29.15.44.33.44.55.07.44-.33.73-1.21.88a26.5,26.5,0,0,0,12.66,5.61l-.11.66A4.1,4.1,0,0,0,24,67.59Zm-3,3,1.76-2.42,3.08,2.2a.35.35,0,0,1,.22.33c0,.37-.29.55-.88.55H14.42a56.28,56.28,0,0,1-6.82,5.72l10.89-.33a17.18,17.18,0,0,0-2.64-3.85l.33-.33q6.93,2.86,7.15,6.05A2.32,2.32,0,0,1,21.13,81a1.23,1.23,0,0,1-1.21-1A6.2,6.2,0,0,0,19,77.94q-6.38,1.32-12.88,2.2c-.15.81-.44,1.21-.88,1.21-.22,0-.37-.18-.44-.55L3.52,76.95a3.62,3.62,0,0,0,2.75-.77,27.61,27.61,0,0,0,3.08-5h-8v-.66Zm-5.94-4.73,1.65-2,2.64,1.87a.36.36,0,0,1,.22.33c0,.22-.26.37-.77.44H7.26v-.66Z"/><path class="cls-1" d="M6.65,107.82q.06-2.17.06-4.64V96.43l2,.43h.56l.5-.87,1.55.62c.17.08.25.19.25.31s-.19.45-.56.62v2.91a19.63,19.63,0,0,0,2.41-5.26l1.92.5c.16,0,.25.06.25.19s-.21.39-.62.43c-.12.25-.25.47-.37.68H16l.68-.87,1.86,1.05a.42.42,0,0,1,.19.37c0,.29-.27.41-.8.37A15,15,0,0,1,16,99.46h2.23l.56-.87,1.67.68c.16.08.25.19.25.31s-.19.41-.56.62v.87q0,1.11.06,2.41a.4.4,0,0,1-.37.43,3.92,3.92,0,0,1-1.24.19v-.8h-2a2.21,2.21,0,0,1-.19.62l1.67.19c.17,0,.25.12.25.25s-.17.35-.5.43v2.35c0,.37.14.54.56.5h.43c.41,0,.7-.21.87-.74l.68-1.92.25.06.06,1.73a.79.79,0,0,0,.31.74.52.52,0,0,1,.31.43q-.06,1.05-2,1.05H17.73q-1.55.12-1.49-1.42v-3.1q-1.05,3.34-6.07,5.08l-.19-.31q4.21-2.48,4.83-5.94H13.46v.8a.33.33,0,0,1-.31.43,6.92,6.92,0,0,1-1.24.12q.06-1,.06-2.17v-2.35c-.25.21-.54.43-.87.68L11,100.7v1q0,1.67.06,4.58a.53.53,0,0,1-.37.56A5.39,5.39,0,0,1,9.5,107V105.9H8.2v1.18q0,.5-.31.56A4.73,4.73,0,0,1,6.65,107.82ZM9.5,97.23H8.2v3.9H9.5Zm-1.3,4.33v4H9.5v-4Zm6.19-4.21A9.75,9.75,0,0,1,13,99.21l.87.25h1.49l.87-2.11Zm.56,5.57a16.77,16.77,0,0,0,.25-3.09H13.46v3.09Zm3.65-3.09H16.87a29,29,0,0,1-.25,3.09h2Z"/><path class="cls-1" d="M18.1,124.16l1.11-1.3,1.92,1.3s.06.06.06.19-.15.25-.43.25H6.22v-.43H12.1V114.5q0-2-.06-3.34l2.35.19c.17,0,.25.06.25.19s-.19.45-.68.62v4.64h3.09l1.05-1.42,1.79,1.3a.36.36,0,0,1,.06.25c0,.12-.15.21-.43.25H14v7Z"/><path class="cls-1" d="M17.79,131.53l.8-1.61L20.83,131a.25.25,0,0,1,.12.25q.06.19-.37.31L12.41,133V138q-.12.93.93.8h3.34a1,1,0,0,0,1.24-.93l.87-3.09.31.06.12,2.54a1.51,1.51,0,0,0,.43,1.11.89.89,0,0,1,.37.68q-.25,1.18-2.35,1.24H12.22a1.48,1.48,0,0,1-1.67-1.67v-5.45l-4.33.74-.06-.43,4.39-.8v-1.61q0-.56-.06-2.17v-1.79l2.35.19a.16.16,0,0,1,.19.19q0,.37-.62.62v4.27Z"/><path class="cls-1" d="M10.86,155.48v-1.55h-2v1.49a.38.38,0,0,1-.31.43,10,10,0,0,1-1.3.12q.06-.8.06-1.86v-6.44q0-2.23-.06-3.71l2,.5h1.24l.56-.87,1.67.62.06.06a.37.37,0,0,1,.19.31q0,.31-.62.62v6.44q.06,2.35.06,3.28c0,.25-.06.37-.31.37A4.49,4.49,0,0,1,10.86,155.48Zm0-10.65h-2V149h2Zm-2,4.58v4.15h2v-4.15Zm10.21-2.72.74-1.05,1.36,1a.2.2,0,0,1,.12.19c0,.12-.12.21-.37.25H18.66v1.55q0,2.17.13,6.31.06,1.86-2.6,2,.06-1.36-2.29-1.55L14,155l2,.06c.7,0,1-.23,1-.8v-7.24H12.72v-.37H17q0-.87-.06-2.29v-1.55L19,143c.16,0,.25.06.25.19s-.25.43-.62.56v2.91Zm-5.63,1.73q2.48.87,2.41,2.17a1.17,1.17,0,0,1-1.11,1.24q-.56,0-.68-.68a7.44,7.44,0,0,0-.74-2.6Z"/><path class="cls-1" d="M18.1,171.52l1.11-1.3,1.92,1.24a.48.48,0,0,1,.06.19c0,.16-.15.25-.43.25H6.4v-.37h6.25v-2.91h-5v-.37h5q0-1.42-.06-2.6l2.23.19c.16,0,.25.06.25.19s-.21.43-.62.56v1.67h2.41l1.05-1.36,1.79,1.3a.26.26,0,0,1,.06.19c0,.12-.12.21-.37.25h-5v2.91Zm-.5-11.33,1.05-1.42,1.8,1.3a.37.37,0,0,1,.06.25c0,.12-.14.21-.43.25H14.14A25.51,25.51,0,0,1,10.3,164l6.5-.37a13.39,13.39,0,0,0-1.67-2l.12-.25q4.46,1.73,4.46,3.47-.06,1.18-1.05,1.3a1.1,1.1,0,0,1-.87-.62,6,6,0,0,0-.5-1.18,70.37,70.37,0,0,1-8.11,1.42c0,.46-.12.68-.37.68s-.21-.1-.25-.31L8,164a2,2,0,0,0,1.55-.62,16.07,16.07,0,0,0,2-2.85H7v-.37Z"/><path class="cls-1" d="M17.79,179.07l.8-1.61,2.23,1.05a.25.25,0,0,1,.12.25q.06.19-.37.31l-8.17,1.42v5.08q-.12.93.93.8h3.34a1,1,0,0,0,1.24-.93l.87-3.09.31.06.12,2.54a1.51,1.51,0,0,0,.43,1.11.89.89,0,0,1,.37.68q-.25,1.18-2.35,1.24H12.22a1.48,1.48,0,0,1-1.67-1.67v-5.45l-4.33.74-.06-.43,4.39-.8v-1.61q0-.56-.06-2.17V174.8l2.35.19a.16.16,0,0,1,.19.19q0,.37-.62.62v4.27Z"/><path class="cls-1" d="M10.86,203v-1.55h-2V203a.38.38,0,0,1-.31.43,10,10,0,0,1-1.3.12q.06-.8.06-1.86v-6.44q0-2.23-.06-3.71l2,.5h1.24l.56-.87,1.67.62.06.06a.37.37,0,0,1,.19.31q0,.31-.62.62v6.44q.06,2.35.06,3.28c0,.25-.06.37-.31.37A4.49,4.49,0,0,1,10.86,203Zm0-10.65h-2v4.21h2Zm-2,4.58v4.15h2V197Zm10.21-2.72.74-1.05,1.36,1a.2.2,0,0,1,.12.19c0,.12-.12.21-.37.25H18.66v1.55q0,2.17.13,6.31.06,1.86-2.6,2,.06-1.36-2.29-1.55l.06-.31,2,.06c.7,0,1-.23,1-.8V194.6H12.72v-.37H17q0-.87-.06-2.29v-1.55l2.1.19c.16,0,.25.06.25.19s-.25.43-.62.56v2.91ZM13.46,196q2.48.87,2.41,2.17a1.17,1.17,0,0,1-1.11,1.24q-.56,0-.68-.68a7.44,7.44,0,0,0-.74-2.6Z"/><path class="cls-1" d="M17.73,218.57l1.05-1.42,1.92,1.42c.08,0,.12.06.12.19s-.12.12-.37.12h-14v-.31Zm-.5-10.46,1-1.3,1.73,1.3c.12,0,.16.1.12.19s-.12.21-.37.25H7.21v-.43Zm-.87,5,.93-1.24,1.79,1.24a.2.2,0,0,1,.12.19c0,.12-.15.21-.43.25H8.14v-.43Z"/><path class="cls-1" d="M17.79,228,19,226.37l2,1.49a.25.25,0,0,1,.13.25c0,.12-.17.21-.5.25H14.45v3.9q.06,2,.06,3.34a.39.39,0,0,1-.37.5,16.69,16.69,0,0,1-1.67.12c0-.37,0-.89.06-1.55q.06-3,.06-3.71v-2.6H6.28V228h6.31v-3.53q-.06-1.55-.06-2.35l2.35.19a.24.24,0,0,1,.25.19c0,.25-.23.43-.68.56v5Z"/><path class="cls-1" d="M10.74,238.55l2.23.8c.17.08.25.19.25.31s-.27.39-.8.43a13.53,13.53,0,0,1-6,6.07l-.25-.31a19,19,0,0,0,4-5.63A5.59,5.59,0,0,0,10.74,238.55Zm4.89,5.82.62-1.05.5.25a9.23,9.23,0,0,1-2.11-4.27c-.12-.41-.27-.83-.43-1.24l1.3.12h.06a.2.2,0,0,1,.12.19c0,.12-.21.27-.62.43a9.24,9.24,0,0,0,6.19,4.77l-.06.31a2.93,2.93,0,0,0-1.49,1.79,7.87,7.87,0,0,1-1.55-.87.94.94,0,0,1-.5.31q0,1.42-.25,4T14,251.92q.12-1.36-2.17-1.8l.12-.31,2.11.19q1.42.13,1.55-1.18a30.74,30.74,0,0,0,.31-4.09H12.66q-.19,6.13-6.31,7.49L6.22,252q4.58-2.6,4.58-7.24H9.13v-.37Z"/><line class="cls-3" x1="3.17" y1="88.57" x2="24.12" y2="88.57"/></g></g></svg>