<svg xmlns="http://www.w3.org/2000/svg" viewBox="0 0 26.63 252.28"><defs><style>.cls-1{fill:#f6eadf;}.cls-2{fill:#3b2741;}.cls-3{fill:none;stroke:#f6eadf;stroke-miterlimit:10;stroke-width:0.5px;}</style></defs><title>dinner-1</title><g id="图层_2" data-name="图层 2"><g id="图层_1-2" data-name="图层 1"><circle class="cls-1" cx="13.1" cy="12.03" r="12.03"/><path class="cls-2" d="M12.69,4.27a.37.37,0,1,0-.74,0V6.85h0v.44h0V8.34a.37.37,0,0,1-.74,0h0l-.06-1.4L11,4.27a.37.37,0,1,0-.74,0l-.09,2.67-.06,1.4h0a.37.37,0,1,1-.74,0h0V7.29h0V6.85h0V4.27a.37.37,0,1,0-.74,0L8.44,9.12a2.24,2.24,0,0,0,1.49,2.1v8.19a.74.74,0,1,0,1.49,0V11.23a2.24,2.24,0,0,0,1.49-2.1Z"/><path class="cls-2" d="M17.38,3.9h-.09c-.4.08-2,.64-2.28,4.8A23.07,23.07,0,0,0,15,12a4.6,4.6,0,0,0,1.25,1.69v5.76h0a.74.74,0,0,0,1.48,0h0V4.27a.37.37,0,0,0-.37-.37"/><path class="cls-1" d="M.66,50.39q.11-3.85.11-8.25v-12l3.52.77h1l.88-1.54,2.75,1.1c.29.15.44.33.44.55,0,.44-.33.81-1,1.1v5.17a34.81,34.81,0,0,0,4.29-9.35l3.41.88c.29,0,.44.11.44.33,0,.44-.37.7-1.1.77q-.33.66-.66,1.21h2.53l1.21-1.54,3.3,1.87a.74.74,0,0,1,.33.66c0,.51-.48.73-1.43.66a26.74,26.74,0,0,1-3.41,2.75h4l1-1.54,3,1.21c.29.15.44.33.44.55s-.33.73-1,1.1v1.54q0,2,.11,4.29a.71.71,0,0,1-.66.77,6.94,6.94,0,0,1-2.2.33V42.35H18.27a4,4,0,0,1-.33,1.1l3,.33c.29.07.44.22.44.44s-.29.62-.88.77v4.18q-.11,1,1,.88h.77q1.1.11,1.54-1.32L25,45.32l.44.11.11,3.08a1.41,1.41,0,0,0,.55,1.32.93.93,0,0,1,.55.77q-.11,1.87-3.63,1.87H20.36q-2.75.22-2.64-2.53v-5.5q-1.87,5.94-10.79,9l-.33-.55q7.48-4.4,8.58-10.57H12.77v1.43a.59.59,0,0,1-.55.77,12.35,12.35,0,0,1-2.2.22q.11-1.76.11-3.85V36.74q-.66.55-1.54,1.21l-.22-.22v1.76q0,3,.11,8.14a.94.94,0,0,1-.66,1,9.59,9.59,0,0,1-2.09.22V47H3.41v2.09q0,.88-.55,1A8.46,8.46,0,0,1,.66,50.39ZM5.72,31.57H3.41V38.5H5.72Zm-2.31,7.7v7H5.72v-7Zm11-7.48A17.3,17.3,0,0,1,12,35.09l1.54.44h2.64l1.54-3.74Zm1,9.91a30,30,0,0,0,.44-5.5H12.77v5.5Zm6.49-5.5H18.82a52.37,52.37,0,0,1-.44,5.5H21.9Z"/><path class="cls-1" d="M21.24,72.27,23,69.85l3.08,2.31c.22.07.29.18.22.33s-.26.37-.77.44H19.26a16.4,16.4,0,0,1-2.42,3.74q6.27.66,6.16,2.86-.11,1.76-1.21,2a2.49,2.49,0,0,1-1.65-.66,14,14,0,0,0-5.5-2.2Q10.78,81.3,1.1,81.52L.88,81a46.93,46.93,0,0,0,10.23-3.08q-2.53-.55-6.16-1a.22.22,0,0,1-.11-.33A39.66,39.66,0,0,0,7.7,72.93H0v-.66H8.14a4.82,4.82,0,0,1,.44-.88,16.84,16.84,0,0,0,1-1.76l3.19.88c.29.07.44.22.44.44-.07.44-.44.62-1.1.55a.32.32,0,0,0-.11.22,2.37,2.37,0,0,1-.44.55ZM1.65,60.61a4.61,4.61,0,0,0,1.87-2.86H4a14,14,0,0,1,.55,1.87h7.59c-.44-.07-.7-.44-.77-1.1a4,4,0,0,0-1.1-2.31l.22-.22q4.29,0,4.18,1.87A2,2,0,0,1,13,59.62h8.36l1.32-1.76,3.08,2a1,1,0,0,1,.33.66q-.11.77-1.32.66l-.11.11A31.44,31.44,0,0,1,21.46,63l-.22-.22q-.11.44-1,1v1q0,3.41.11,4.73,0,.77-.55.88a9.15,9.15,0,0,1-2.42.33V69.52H8.25v.22a.93.93,0,0,1-.66,1A11.64,11.64,0,0,1,5.28,71q.11-1.65.11-4.73V61.71l4.07.88h7.59l.88-1.65,3,1.1.11.11a.1.1,0,0,1,.11.11l.77-2H4.62a3.69,3.69,0,0,1,.11.88Q4.62,63.8,2.2,64,.77,63.91.66,62.26.55,61.38,1.65,60.61Zm15.74,2.64H8.25v2.42h9.13ZM8.25,66.33v2.53h9.13V66.33Zm.33,9.79q.77,0,2.31.11a16.46,16.46,0,0,1,2.31.11,12,12,0,0,0,2.64-3.41H11.12Q9.9,74.59,8.58,76.13Z"/><path class="cls-1" d="M6.1,108.11q.06-2.17.06-4.64V96.72l2,.43H8.7l.5-.87,1.55.62c.17.08.25.19.25.31s-.19.45-.56.62v2.91a19.63,19.63,0,0,0,2.41-5.26l1.92.5c.16,0,.25.06.25.19s-.21.39-.62.43c-.12.25-.25.47-.37.68h1.42l.68-.87L18,97.46a.42.42,0,0,1,.19.37c0,.29-.27.41-.8.37a15,15,0,0,1-1.92,1.55h2.23l.56-.87,1.67.68c.16.08.25.19.25.31s-.19.41-.56.62v.87q0,1.11.06,2.41a.4.4,0,0,1-.37.43,3.92,3.92,0,0,1-1.24.19v-.8H16a2.21,2.21,0,0,1-.19.62l1.67.19c.17,0,.25.12.25.25s-.17.35-.5.43v2.35c0,.37.14.54.56.5h.43c.41,0,.7-.21.87-.74l.68-1.92.25.06.06,1.73a.79.79,0,0,0,.31.74.52.52,0,0,1,.31.43q-.06,1.05-2,1.05H17.18q-1.55.12-1.49-1.42v-3.1q-1.05,3.34-6.07,5.08l-.19-.31q4.21-2.48,4.83-5.94H12.91v.8a.33.33,0,0,1-.31.43,6.92,6.92,0,0,1-1.24.12q.06-1,.06-2.17v-2.35c-.25.21-.54.43-.87.68l-.12-.12v1q0,1.67.06,4.58a.53.53,0,0,1-.37.56,5.39,5.39,0,0,1-1.18.12v-1.05H7.65v1.18q0,.5-.31.56A4.73,4.73,0,0,1,6.1,108.11ZM9,97.52H7.65v3.9H9Zm-1.3,4.33v4H9v-4Zm6.19-4.21a9.75,9.75,0,0,1-1.36,1.86l.87.25h1.49l.87-2.11Zm.56,5.57a16.77,16.77,0,0,0,.25-3.09H12.91v3.09ZM18,100.12H16.32a29,29,0,0,1-.25,3.09h2Z"/><path class="cls-1" d="M17.55,124.45l1.11-1.3,1.92,1.3s.06.06.06.19-.15.25-.43.25H5.67v-.43h5.88v-9.66q0-2-.06-3.34l2.35.19c.17,0,.25.06.25.19s-.19.45-.68.62v4.64H16.5l1.05-1.42,1.79,1.3a.36.36,0,0,1,.06.25c0,.12-.15.21-.43.25H13.41v7Z"/><path class="cls-1" d="M17.25,131.82l.8-1.61,2.23,1.05a.25.25,0,0,1,.12.25q.06.19-.37.31l-8.17,1.42v5.08q-.12.93.93.8h3.34a1,1,0,0,0,1.24-.93l.87-3.09.31.06.12,2.54a1.51,1.51,0,0,0,.43,1.11.89.89,0,0,1,.37.68q-.25,1.18-2.35,1.24H11.67A1.48,1.48,0,0,1,10,139.06v-5.45l-4.33.74-.06-.43,4.39-.8v-1.61q0-.56-.06-2.17v-1.79l2.35.19a.16.16,0,0,1,.19.19q0,.37-.62.62v4.27Z"/><path class="cls-1" d="M10.31,155.77v-1.55h-2v1.49a.38.38,0,0,1-.31.43,10,10,0,0,1-1.3.12q.06-.8.06-1.86V148q0-2.23-.06-3.71l2,.5H10l.56-.87,1.67.62.06.06a.37.37,0,0,1,.19.31q0,.31-.62.62v6.44q.06,2.35.06,3.28c0,.25-.06.37-.31.37A4.49,4.49,0,0,1,10.31,155.77Zm0-10.65h-2v4.21h2Zm-2,4.58v4.15h2V149.7ZM18.54,147l.74-1.05,1.36,1a.2.2,0,0,1,.12.19c0,.12-.12.21-.37.25H18.11v1.55q0,2.17.13,6.31.06,1.86-2.6,2,.06-1.36-2.29-1.55l.06-.31,2,.06c.7,0,1-.23,1-.8v-7.24H12.17V147h4.27q0-.87-.06-2.29v-1.55l2.1.19c.16,0,.25.06.25.19s-.25.43-.62.56V147Zm-5.63,1.73q2.48.87,2.41,2.17a1.17,1.17,0,0,1-1.11,1.24q-.56,0-.68-.68a7.44,7.44,0,0,0-.74-2.6Z"/><path class="cls-1" d="M17.18,171.32l1.05-1.42,1.92,1.42c.08,0,.12.06.12.19s-.12.12-.37.12h-14v-.31Zm-.5-10.46,1-1.3,1.73,1.3c.12,0,.16.1.12.19s-.12.21-.37.25H6.66v-.43Zm-.87,5,.93-1.24,1.79,1.24a.2.2,0,0,1,.12.19c0,.12-.15.21-.43.25H7.59v-.43Z"/><path class="cls-1" d="M17.25,180.73l1.24-1.61,2,1.49a.25.25,0,0,1,.13.25c0,.12-.17.21-.5.25H13.9V185q.06,2,.06,3.34a.39.39,0,0,1-.37.5,16.69,16.69,0,0,1-1.67.12c0-.37,0-.89.06-1.55q.06-3,.06-3.71v-2.6H5.73v-.37H12V177.2q-.06-1.55-.06-2.35l2.35.19a.24.24,0,0,1,.25.19c0,.25-.23.43-.68.56v5Z"/><path class="cls-1" d="M10.19,191.3l2.23.8c.17.08.25.19.25.31s-.27.39-.8.43a13.53,13.53,0,0,1-6,6.07l-.25-.31a19,19,0,0,0,4-5.63A5.59,5.59,0,0,0,10.19,191.3Zm4.89,5.82.62-1.05.5.25A9.23,9.23,0,0,1,14.09,192c-.12-.41-.27-.83-.43-1.24l1.3.12H15a.2.2,0,0,1,.12.19c0,.12-.21.27-.62.43a9.24,9.24,0,0,0,6.19,4.77l-.06.31a2.93,2.93,0,0,0-1.49,1.79,7.87,7.87,0,0,1-1.55-.87.94.94,0,0,1-.5.31q0,1.42-.25,4t-3.4,2.79q.12-1.36-2.17-1.8l.12-.31,2.11.19q1.42.13,1.55-1.18a30.74,30.74,0,0,0,.31-4.09H12.11q-.19,6.13-6.31,7.49l-.12-.25q4.58-2.6,4.58-7.24H8.58v-.37Z"/><path class="cls-1" d="M17.55,219.35l1.11-1.3,1.92,1.24a.48.48,0,0,1,.06.19c0,.16-.15.25-.43.25H5.86v-.37h6.25v-2.91h-5v-.37h5q0-1.42-.06-2.6l2.23.19c.16,0,.25.06.25.19s-.21.43-.62.56v1.67h2.41l1.05-1.36,1.79,1.3a.26.26,0,0,1,.06.19c0,.12-.12.21-.37.25h-5v2.91ZM17.06,208l1.05-1.42,1.8,1.3a.37.37,0,0,1,.06.25c0,.12-.14.21-.43.25H13.59a25.51,25.51,0,0,1-3.84,3.47l6.5-.37a13.39,13.39,0,0,0-1.67-2l.12-.25q4.46,1.73,4.46,3.47-.06,1.18-1.05,1.3a1.1,1.1,0,0,1-.87-.62,6,6,0,0,0-.5-1.18,70.37,70.37,0,0,1-8.11,1.42c0,.46-.12.68-.37.68s-.21-.1-.25-.31l-.62-2.17A2,2,0,0,0,9,211.24a16.07,16.07,0,0,0,2-2.85H6.41V208Z"/><path class="cls-1" d="M14.46,226.41l.68-1,1.86.68c.16.08.25.19.25.31s-.23.5-.68.74v6.38q-.06.68.68.62H18q.62.06.87-.74l.74-2.72.31.06.06,2.48a1,1,0,0,0,.31.87.64.64,0,0,1,.37.62q-.06.93-2,.93H16.5q-1.73.06-1.67-1.79v-7.06H12.11q.18,7.18-6.44,9.72l-.19-.25a11.52,11.52,0,0,0,4.89-9.47H6.54v-.37h3.84v-1.36q0-1.67-.06-2.72l2.17.19c.25,0,.35.08.31.25s-.21.37-.62.5v1.11q0,1.11-.06,2Z"/><path class="cls-1" d="M10.31,250.85V249.3h-2v1.49a.38.38,0,0,1-.31.43,10,10,0,0,1-1.3.12q.06-.8.06-1.86v-6.44q0-2.23-.06-3.71l2,.5H10l.56-.87,1.67.62.06.06a.37.37,0,0,1,.19.31q0,.31-.62.62V247q.06,2.35.06,3.28c0,.25-.06.37-.31.37A4.49,4.49,0,0,1,10.31,250.85Zm0-10.65h-2v4.21h2Zm-2,4.58v4.15h2v-4.15Zm10.21-2.72.74-1.05,1.36,1a.2.2,0,0,1,.12.19c0,.12-.12.21-.37.25H18.11V244q0,2.17.13,6.31.06,1.86-2.6,2,.06-1.36-2.29-1.55l.06-.31,2,.06c.7,0,1-.23,1-.8v-7.24H12.17v-.37h4.27q0-.87-.06-2.29v-1.55l2.1.19c.16,0,.25.06.25.19s-.25.43-.62.56v2.91Zm-5.63,1.73q2.48.87,2.41,2.17a1.17,1.17,0,0,1-1.11,1.24q-.56,0-.68-.68a7.44,7.44,0,0,0-.74-2.6Z"/><line class="cls-3" x1="2.62" y1="88.86" x2="23.57" y2="88.86"/></g></g></svg>