<svg xmlns="http://www.w3.org/2000/svg" viewBox="0 0 164.35 32.5"><defs><style>.cls-1{fill:#f6eadf;}.cls-2{fill:none;stroke:#f3e5cb;stroke-miterlimit:10;stroke-width:0.5px;}</style></defs><title>special-guest</title><g id="图层_2" data-name="图层 2"><g id="图层_1-2" data-name="图层 1"><path class="cls-1" d="M11.47,23.92q.09-3.29.09-7V6.65l3,.66h.84L16.17,6l2.35.94c.25.13.38.28.38.47q0,.56-.84.94v4.41a29.73,29.73,0,0,0,3.66-8l2.91.75c.25,0,.38.09.38.28,0,.38-.31.6-.94.66q-.28.56-.56,1h2.16l1-1.31,2.82,1.6a.63.63,0,0,1,.28.56q0,.66-1.22.56a22.73,22.73,0,0,1-2.91,2.35H29l.84-1.31,2.54,1c.25.13.38.28.38.47s-.28.63-.84.94v1.31q0,1.69.09,3.66a.6.6,0,0,1-.56.66,5.92,5.92,0,0,1-1.88.28V17.07h-3.1a3.37,3.37,0,0,1-.28.94l2.54.28c.25.06.38.19.38.38s-.25.53-.75.66v3.57q-.09.85.84.75h.66q.94.1,1.32-1.13l1-2.91.38.09.09,2.63a1.21,1.21,0,0,0,.47,1.13.79.79,0,0,1,.47.66q-.09,1.6-3.1,1.6H28.28q-2.35.19-2.25-2.16V18.85q-1.6,5.07-9.2,7.7l-.28-.47q6.38-3.75,7.32-9H21.8v1.22a.5.5,0,0,1-.47.66,10.51,10.51,0,0,1-1.88.19q.09-1.5.09-3.29V12.28q-.56.47-1.31,1L18,13.12v1.5q0,2.54.09,6.95a.8.8,0,0,1-.56.84,8.09,8.09,0,0,1-1.78.19V21h-2V22.8q0,.75-.47.84A7.18,7.18,0,0,1,11.47,23.92ZM15.79,7.87h-2v5.92h2Zm-2,6.57v6h2v-6Zm9.39-6.38a14.79,14.79,0,0,1-2.07,2.82l1.31.38h2.25L26,8.05Zm.84,8.45a25.46,25.46,0,0,0,.38-4.69H21.8V16.5Zm5.54-4.69H27a44.65,44.65,0,0,1-.38,4.69h3Z"/><path class="cls-1" d="M53.07,18.57l1.5-2.07,2.63,2c.19.06.25.16.19.28s-.22.31-.66.38H51.38a14,14,0,0,1-2.07,3.19q5.35.56,5.26,2.44-.1,1.5-1,1.69a2.13,2.13,0,0,1-1.41-.56A11.94,11.94,0,0,0,47.43,24q-3.29,2.25-11.55,2.44L35.7,26a40.1,40.1,0,0,0,8.73-2.63q-2.16-.47-5.26-.84a.19.19,0,0,1-.09-.28,33.81,33.81,0,0,0,2.44-3.1H34.95v-.56h6.95a4.13,4.13,0,0,1,.38-.75,14.64,14.64,0,0,0,.84-1.5l2.72.75c.25.06.38.19.38.38-.06.38-.38.53-.94.47a.27.27,0,0,0-.09.19,2,2,0,0,1-.37.47Zm-16.71-10a3.94,3.94,0,0,0,1.6-2.44h.38a12.25,12.25,0,0,1,.47,1.6h6.48c-.38-.06-.6-.38-.66-.94a3.46,3.46,0,0,0-.94-2l.19-.19q3.66,0,3.57,1.6A1.68,1.68,0,0,1,46,7.77h7.14l1.13-1.5L56.92,8a.81.81,0,0,1,.28.56q-.1.66-1.13.56L56,9.18a26.77,26.77,0,0,1-2.72,1.5l-.19-.19q-.1.38-.85.84v.85q0,2.91.09,4,0,.66-.47.75a7.84,7.84,0,0,1-2.07.28v-1H42v.19a.8.8,0,0,1-.56.84,9.92,9.92,0,0,1-2,.19q.09-1.41.09-4V9.56l3.47.75H49.5l.75-1.41,2.54.94.09.09A.08.08,0,0,1,53,10l.66-1.69H38.89a3.14,3.14,0,0,1,.09.75,2.22,2.22,0,0,1-2.16,2.44q-1.22-.09-1.31-1.5Q35.41,9.28,36.35,8.62Zm13.43,2.25H42v2.07h7.79ZM42,13.5v2.16h7.79V13.5Zm.28,8.36q.66,0,2,.09a14.08,14.08,0,0,1,2,.09,10.25,10.25,0,0,0,2.25-2.91h-4Q43.39,20.54,42.27,21.86Z"/><path class="cls-1" d="M75.32,11.62l1.41-1.78,2.35,1.69a.3.3,0,0,1,.19.28c0,.19-.22.31-.66.38H71.38V15h5.54l1.6-2.07,2.72,2a.38.38,0,0,1,.09.28c0,.19-.19.31-.56.38h-9.2a23.68,23.68,0,0,0,3.1,4.13A16.92,16.92,0,0,0,77.29,16l2.35,1.5a.37.37,0,0,1,.28.38q.09.56-1,.47a11.75,11.75,0,0,1-3.66,1.78,14,14,0,0,0,6.29,3.29l-.19.56q-1.6.09-2.82,2.25-5.73-2.82-7.7-10.61a19.22,19.22,0,0,1-3.29,2.82V22.7l5.07-.94.19.56A56.44,56.44,0,0,1,66,25.61q0,1.13-.56,1.22c-.19,0-.34-.13-.47-.37l-1.22-3a1.42,1.42,0,0,0,1.13-1.6V20a32.15,32.15,0,0,1-6,2.35l-.19-.47a30.86,30.86,0,0,0,8.45-6.29h-8V15h9.58V12.19h-7v-.56h7V8.9H60.48V8.34h8.26q0-2.25-.09-3.57L71.94,5c.25.06.38.16.38.28q0,.56-.94.84V8.34h4.69l1.5-1.88,2.35,1.78a.38.38,0,0,1,.19.38q0,.28-.66.28H71.38v2.72Z"/><path class="cls-1" d="M82.74,10.78l.19-.28q3.94.94,3.85,2.72a1.7,1.7,0,0,1-1.5,1.69.85.85,0,0,1-.94-.85A10.77,10.77,0,0,0,82.74,10.78ZM95.6,7.3A4.36,4.36,0,0,0,94.76,5l.19-.28q3.47.19,3.38,1.78a1.35,1.35,0,0,1-1,1.31h4.6l1-1.31,2.44,1.5a.55.55,0,0,1,.28.47q-.09.66-1.13.56a19.06,19.06,0,0,1-2.07,1.31l.19.19a.37.37,0,0,1,.28.38c0,.19-.22.31-.66.38H98v2.35h2.63l.84-1.41,2.54,1c.25.13.38.28.38.47s-.31.66-.94,1v3.47q.09,2.07.09,2.91c.06.44-.09.66-.47.66a6.84,6.84,0,0,1-2,.28V21.2H92.69v.19q0,.66-.47.75a6.84,6.84,0,0,1-2,.28q0-1.31.09-3V16.22q0-2.25-.09-3.29l3.19.75h2.25V11.34H91.75v-.56h7.7l1.13-1.6,1.13.75.47-1.5H91.75a6.43,6.43,0,0,1,.09,1q-.1,2-1.6,2.07a1,1,0,0,1-.85-.37l-1.88,6.57a12.83,12.83,0,0,0-.47,2.63,7.82,7.82,0,0,0,.28,2.07,12.28,12.28,0,0,1,.38,2.07,1.69,1.69,0,0,1-1.78,1.78q-1.41-.09-1.5-1.69a11.43,11.43,0,0,1,.19-1.5,1.57,1.57,0,0,0,.09-.47,3.94,3.94,0,0,0,.19-1.69q.28-1.13-2.07-1.78l.19-.56q2.25.38,2.54-.84l3.47-7a1.29,1.29,0,0,1-.09-.56,1.44,1.44,0,0,1,.66-1.22A2.84,2.84,0,0,0,91,6.74h.38a7.55,7.55,0,0,1,.28,1.13H96A.91.91,0,0,1,95.6,7.3ZM84.24,5.71l.19-.19q4.23.75,4.13,2.63a1.49,1.49,0,0,1-1.5,1.6A1.14,1.14,0,0,1,86,9,9.07,9.07,0,0,0,84.24,5.71Zm10,16.06,2.54,1.31c.25.06.38.19.38.38q0,.56-1,.47a23.17,23.17,0,0,1-7.61,2.44l-.19-.47A20.39,20.39,0,0,0,94.19,21.76Zm-1.5-7.42v2.82h3V14.34Zm0,3.38v2.91h3V17.72Zm5,4.6.09-.28q7.32.66,7,2.72-.1,1.41-1.31,1.5a1.51,1.51,0,0,1-.94-.37A17.61,17.61,0,0,0,97.67,22.33Zm3.47-8H98v2.82h3.1ZM98,17.72v2.91h3.1V17.72Z"/><path class="cls-1" d="M120.39,14.72l2.82.56a.37.37,0,0,1,.28.38q0,.47-.85.56a4.66,4.66,0,0,0-.47.28,5.64,5.64,0,0,1-1.13.75h4.41l1.5-2,2.54,1.78a.38.38,0,0,1,.19.38c0,.19-.22.31-.66.38h-15.3a4.12,4.12,0,0,1-.09.75q-.1.94-.19,1.41h1.88l.75-1.31,2.25.94c.25.06.38.19.38.38q0,.56-.84,1a1.57,1.57,0,0,1-.09.47q-.1,1-.09,2.16-.19,2.44-3.38,2.63-.1-1.6-2.44-2l.09-.28,2.16.09c.88,0,1.31-.25,1.31-.75s.13-1,.19-1.88a7.82,7.82,0,0,0,.09-.94h-2.35q-.85,4.23-6.29,6l-.28-.38q3.66-2.53,4.13-5.63h-3.19V20h3.38a12.17,12.17,0,0,0,.19-2.16h-4.13v-.56h7.23a.9.9,0,0,1-.38-.56,3.1,3.1,0,0,0-.84-1.69l.19-.19q3.1-.09,3.1,1.22a1.28,1.28,0,0,1-.94,1.22h4.32A12.68,12.68,0,0,0,120.39,14.72Zm4.23-7.51,1.5-2.07,2.72,2a.3.3,0,0,1,.19.28c0,.19-.19.31-.56.38h-3.19l2.35,1.69c.13,0,.19.09.19.28s-.22.31-.66.38H108.84V9.56h8.08V7.77h-9.39V7.21h9.39V4.86l3.1.28a.25.25,0,0,1,.28.28c0,.38-.31.66-.94.84v.94Zm-14,8.45a21.21,21.21,0,0,0,.09-2.35V11.06l3.1.66h9l.84-1.31,2.35.94c.25.13.38.28.38.47s-.25.56-.75.94v1.6a.51.51,0,0,1-.47.66,10.51,10.51,0,0,1-1.88.19v-.66H113.06v.19a.51.51,0,0,1-.47.66A6.81,6.81,0,0,1,110.62,15.66Zm12.68-3.47H113.06V14H123.3Zm.56-2.63,1.31-1.78h-5.82V9.56Zm1.31,16.15V24.3H121.8v.94a.52.52,0,0,1-.47.56,5.07,5.07,0,0,1-1.88.19q.09-1.13.09-3.66v-.94a18.59,18.59,0,0,0-.09-2.25l3,.66h2.25l.84-1.41,2.44,1c.25.13.38.28.38.47,0,.38-.31.69-.94.94v1.5a26.06,26.06,0,0,0,.09,2.63c0,.38-.16.56-.47.56A5.05,5.05,0,0,1,125.18,25.71Zm0-5.35H121.8V24h3.38Z"/><path class="cls-1" d="M149.59,20.35l1.41-2,2.54,1.78a.3.3,0,0,1,.19.28c0,.31-.22.47-.66.47H131.18v-.56h4.41V15.19q0-3-.09-4.32l2.82.85q6.29-1.31,8.36-2.72l2.16,1.88a.55.55,0,0,1,.28.47q-.09.75-1,.28a57.14,57.14,0,0,1-10,.94V15h9.76l1.31-1.6,2.16,1.5c.19.13.25.25.19.38s-.19.31-.56.38h-5v4.69ZM149.31,8l1.13-1.5,2.91,1.78a.55.55,0,0,1,.28.47q0,.75-1.13.56a13.74,13.74,0,0,1-3,1.88l-.38-.28.56-2.35H134.85a.71.71,0,0,0,.09.28v.38q-.09,2.44-2.07,2.72a1.45,1.45,0,0,1-1.5-1.5,1.47,1.47,0,0,1,.75-1.31,4,4,0,0,0,1.78-2.63h.38a13.92,13.92,0,0,1,.47,1.5h6.38a1.38,1.38,0,0,1-.38-.66A4.86,4.86,0,0,0,139.64,5l.09-.28q3.94-.09,3.94,1.78a1.57,1.57,0,0,1-.94,1.5ZM138.13,21.29l2.82,1.31c.25.06.38.19.38.38q0,.56-1,.47a26.12,26.12,0,0,1-8.73,3.1l-.19-.47Q137,23.08,138.13,21.29Zm0-5.63v4.69h5.45V15.66Zm5,6.38.09-.38q7.79.75,7.7,3.1a1.58,1.58,0,0,1-1.41,1.69,1.44,1.44,0,0,1-1.22-.66A13.25,13.25,0,0,0,143.11,22Z"/><line class="cls-2" y1="0.25" x2="164.35" y2="0.25"/><line class="cls-2" y1="32.25" x2="164.35" y2="32.25"/></g></g></svg>