<svg xmlns="http://www.w3.org/2000/svg" viewBox="0 0 880.07 135.42"><defs><style>.cls-1{fill:#5f4286;}.cls-1,.cls-3{opacity:0.81;}.cls-2{fill:#3b2741;}.cls-4{fill:#284328;}</style></defs><title>bg2</title><g id="图层_2" data-name="图层 2"><g id="图层_1-2" data-name="图层 1"><path class="cls-1" d="M0,47.7l26-16.4s12.49-8.79,18.44-8.56,22.35,7.49,22.35,7.49S68,37.84,81.73,36s48.07,4.37,48.07,4.37l14.46,5.2,19.52,2.85,33.62-2.14L230,40.21,248.39,42l17.35,3.57,27.12.71L320,49.84,342.75,57l22.78,1.43,33.62,2.14L424.1,67,435,79.05l30.37,12.86,80.26,43.51H0Z"/><path class="cls-1" d="M192.71,132.57h0c.12-.08,30.41-19.63,49.17-24.66s47.73-14.76,64.36-17.28,29.65-1.8,52.06-4.68,28.2-4.32,44.11-7.56,8-4.68,36.88-6.48,12.29-2.7,46.28-10.08c6-1.3,28.92-8.46,28.92-8.46s18.8-5.4,29.65-.54c5.1,2.28,13.74.36,20.25,1.44S567.28,60,586.8,64.34s35.42,10.07,48.08,13.85S646.1,85.59,662,87.75s23.86,3.6-3.61,7.2-112.08,14-112.08,14L508,132.57Z"/><path class="cls-1" d="M880.07,60.47S876,55.07,858.6,47.78s-33.66,7.29-33.66,7.29-2.32,4.86-16.25,6.21S774.44,75.06,756.45,73.7,710.6,86.4,704.8,87.21s-22.05,4.32-6.38,5.13,9.87,4.86,9.87,4.86-20.31,5.13,12.19,6.21S880.07,111,880.07,111Z"/><path class="cls-2" d="M727.87,89V64.29l-.6-.76a2.09,2.09,0,0,0,.89-1.69,2.22,2.22,0,0,0-4.43,0,2.09,2.09,0,0,0,.89,1.69l-.6.76v21a51.83,51.83,0,0,0-16.78-8.83V53.73l-.6-.76a2.08,2.08,0,0,0,.89-1.69,2.22,2.22,0,0,0-4.43,0A2.08,2.08,0,0,0,704,53l-.6.76V75.37a74.49,74.49,0,0,0-16.77-2.31V51.6l-.6-.76a2.09,2.09,0,0,0,.89-1.69,2.22,2.22,0,0,0-4.43,0,2.08,2.08,0,0,0,.89,1.69l-.6.76V73a74.66,74.66,0,0,0-16.85,2.25V53.73l-.6-.76a2.08,2.08,0,0,0,.89-1.69,2.22,2.22,0,0,0-4.43,0,2.08,2.08,0,0,0,.89,1.69l-.6.76V76.41a52.21,52.21,0,0,0-16.77,8.71V64.29l-.6-.76a2.09,2.09,0,0,0,.89-1.69,2.22,2.22,0,0,0-4.43,0,2.1,2.1,0,0,0,.89,1.69l-.6.76V88.68A31.48,31.48,0,0,0,638.75,92h11.52c7.5-6.33,20.2-10.59,34.27-10.59S711.31,85.66,718.81,92h11.52a30.58,30.58,0,0,0-2.46-3Zm0,0"/><path class="cls-2" d="M660.63,69.06a66.26,66.26,0,0,0-13.85,5.7v3.18a61.33,61.33,0,0,1,13.85-6Zm0,0"/><path class="cls-2" d="M681.24,65.82a87.74,87.74,0,0,0-13.85,1.6v2.83a85.13,85.13,0,0,1,13.85-1.63Zm0,0"/><path class="cls-2" d="M681.24,58.19a101.65,101.65,0,0,0-13.85,1.39V62.4A99.29,99.29,0,0,1,681.24,61Zm0,0"/><path class="cls-2" d="M660.63,61a76.41,76.41,0,0,0-13.85,4.84v3a72.15,72.15,0,0,1,13.85-5Zm0,0"/><path class="cls-2" d="M722.56,74.75a65.94,65.94,0,0,0-13.85-5.7v2.89a61.19,61.19,0,0,1,13.85,6Zm0,0"/><path class="cls-2" d="M701.94,67.42a87.74,87.74,0,0,0-13.85-1.6v2.8a85.13,85.13,0,0,1,13.85,1.63Zm0,0"/><path class="cls-2" d="M701.94,59.58a101.65,101.65,0,0,0-13.85-1.39V61a99.08,99.08,0,0,1,13.85,1.41Zm0,0"/><path class="cls-2" d="M722.56,65.86A76.94,76.94,0,0,0,708.71,61v2.85a71.48,71.48,0,0,1,13.85,5Zm0,0"/><g class="cls-3"><path class="cls-4" d="M409.06,26.68c.45,0,.83-.24.87-.54a1.18,1.18,0,0,0-.09-.57c-.1-.3.32-.14,1,.35s1.24,1.19,1.24,1.55a.65.65,0,0,0,.64.66H438a.65.65,0,0,0,.64-.66c0-.36.56-1.05,1.24-1.54s1.11-.66,1-.36a1.36,1.36,0,0,0-.1.57.83.83,0,0,0,.88.55,1.24,1.24,0,0,0,.77-.27.73.73,0,0,0,.3-.63c0-.4-.23-1.19-.23-1.82s-.06-1.13-.13-1.11l-.13.05a8.27,8.27,0,0,1-2.48.33A14.19,14.19,0,0,1,433,21.36a12.68,12.68,0,0,1-4.13-3.43c-1.28-1.69-1.3-3.36-.91-3.34s.48,0,.71,0c2.48,0,3-.66,3.09-.73l.06-.09a.08.08,0,0,0,0-.13l-.11,0a13.8,13.8,0,0,1-2.28-1.16,8.84,8.84,0,0,1-2-1.68c0-.07-.25-1.79-.56-3.82-.26-1.7-.58-3.74-.85-5.44-.32-2-.85-2-1.18,0L423.89,7c-.32,2-.54,3.73-.54,3.81a8.42,8.42,0,0,1-2,1.68A13.54,13.54,0,0,1,419,13.62l-.11,0a.08.08,0,0,0,0,.13l.06.09c.06.07.62.73,3.09.73l.72,0c.39,0,.37,1.65-.92,3.34a12.52,12.52,0,0,1-4.11,3.43A14.19,14.19,0,0,1,411,23.23a7.77,7.77,0,0,1-2.48-.34l-.13,0c-.07,0-.13.47-.13,1.1s-.22,1.43-.23,1.82a.74.74,0,0,0,.29.64,1.23,1.23,0,0,0,.77.26Zm0,0"/><path class="cls-4" d="M395.06,44.31a1.4,1.4,0,0,0,.87-.47.89.89,0,0,0,.25-.73,1.42,1.42,0,0,0-.3-.63c-.25-.3-.53-.55-.52-.63s.86.6,2.12,1.29,2.45,1,2.45,1.29.26.45.59.45h46.15c2.27,0,4.1-.2,4.1-.45s1.2-.61,2.45-1.29,2.11-1.37,2.12-1.29-.27.33-.52.63a1.28,1.28,0,0,0-.3.63.89.89,0,0,0,.25.73,1.4,1.4,0,0,0,.87.47c.66,0,1.55-.26,1.6-1a1,1,0,0,0-.13-.63,3.82,3.82,0,0,1-.48-1.68c0-.66-.11-1.25-.25-1.31a1.87,1.87,0,0,0-1,.4,9.2,9.2,0,0,1-4.9.46,13.67,13.67,0,0,1-10.33-8.05l0-.05s-.2-.05-.41-.05a.37.37,0,0,1-.39-.35.34.34,0,0,0-.34-.34H411.76a.34.34,0,0,0-.34.33.37.37,0,0,1-.39.35,1,1,0,0,0-.41.05l0,.06a14.55,14.55,0,0,1-6.27,6.71,14.79,14.79,0,0,1-4.05,1.34,9.29,9.29,0,0,1-4.9-.46,2,2,0,0,0-1-.41c-.14.06-.25.64-.25,1.31a3.76,3.76,0,0,1-.48,1.68,1.17,1.17,0,0,0-.14.64c.06.77,1,1,1.61,1Zm0,0"/><path class="cls-4" d="M457.11,59.82a3.78,3.78,0,0,1-.48-1.68c0-.66-.11-1.24-.25-1.3a2,2,0,0,0-1,.41,9.29,9.29,0,0,1-4.9.46,14.79,14.79,0,0,1-4.05-1.34,14.54,14.54,0,0,1-6.27-6.71l0-.05s-.2-.06-.41-.06a.37.37,0,0,1-.39-.33.34.34,0,0,0-.34-.35H411.76a.34.34,0,0,0-.34.34.37.37,0,0,1-.39.34,1,1,0,0,0-.41.06l0,.06a14.55,14.55,0,0,1-6.27,6.7,14.85,14.85,0,0,1-4.05,1.35,9.25,9.25,0,0,1-4.9-.47,1.88,1.88,0,0,0-1-.4c-.14.05-.25.64-.25,1.3a3.85,3.85,0,0,1-.48,1.68,1.11,1.11,0,0,0-.14.63c.06.77,1,1,1.61,1a1.36,1.36,0,0,0,.87-.47.88.88,0,0,0,.25-.73,1.35,1.35,0,0,0-.3-.62c-.25-.31-.53-.56-.52-.64s.86.6,2.12,1.29,2.45,1,2.45,1.29.26.45.59.45h1.57c.53,0,1,.25,1,.55s.88.55,2,.55,1.93.2,1.89.45,0,.3-.07.45c-.22,1.47-.49,3.19-.71,5s-.44,3.8-.65,5.76-.7,3.93-.74,5.77c0,.15,0,.3,0,.44s-.36.45-.83.45a.81.81,0,0,0-.85.74c0,.41-.76.74-1.7.74s-1.7,1.67-1.7,3.72v.1a3.86,3.86,0,0,0,4,3.72H446.9a3.8,3.8,0,0,0,3.87-3.72v-.1c0-2-.71-3.72-1.59-3.72s-1.6-.34-1.6-.74a.81.81,0,0,0-.85-.74c-.47,0-.84-.2-.82-.45s0-.3,0-.44c0-1.84-.56-3.8-.74-5.77s-.4-3.92-.65-5.76-.49-3.55-.72-5l-.06-.45c0-.25.81-.45,1.89-.45s2-.25,2-.55.7-.55,1.59-.55,1.59-.2,1.59-.45,1.2-.61,2.45-1.29,2.11-1.36,2.12-1.29a4,4,0,0,1-.52.64,1.25,1.25,0,0,0-.3.62.87.87,0,0,0,.25.73,1.36,1.36,0,0,0,.87.47c.67,0,1.56-.26,1.61-1a1.07,1.07,0,0,0-.14-.63ZM424.26,64c-.22,1.47-.49,3.18-.71,5s-.44,3.79-.65,5.76-.7,3.92-.75,5.76c0,.15,0,.3,0,.45s-.36.44-.83.44a.81.81,0,0,0-.85.75c0,.41-1.72.74-3.83.74s-3.82-.33-3.82-.74a.81.81,0,0,0-.85-.75c-.47,0-.84-.2-.83-.44s0-.3,0-.45c0-1.84-.57-3.8-.75-5.76s-.39-3.93-.65-5.76-.49-3.55-.71-5c0-.16-.05-.31-.07-.45s.81-.46,1.9-.46,2-.24,2-.55,1.72-.54,3.82-.54,3.83.24,3.83.54.87.55,2,.55,1.93.21,1.89.46,0,.29-.06.45Zm17.36,0c-.22,1.47-.49,3.18-.71,5s-.44,3.79-.65,5.76-.7,3.92-.75,5.76c0,.15,0,.3,0,.45s-.36.44-.83.44a.81.81,0,0,0-.85.75c0,.41-1.7.74-3.79.74s-3.8-.33-3.8-.74a.81.81,0,0,0-.85-.75c-.47,0-.84-.2-.83-.44s0-.3,0-.45c0-1.84-.56-3.8-.74-5.76s-.4-3.93-.65-5.76-.49-3.55-.71-5c0-.16-.05-.31-.07-.45s.81-.46,1.89-.46,2-.24,2-.55S431.94,62,434,62s3.8.24,3.8.54.87.55,2,.55,1.93.21,1.89.46,0,.29-.06.45Zm0,0"/></g></g></g></svg>