<svg xmlns="http://www.w3.org/2000/svg" viewBox="0 0 30 30"><defs><style>.cls-1{fill:#fff;}</style></defs><title>静音</title><g id="图层_2" data-name="图层 2"><g id="图层_2-2" data-name="图层 2"><path class="cls-1" d="M28.45,0H1.55A1.55,1.55,0,0,0,0,1.55V28.45A1.55,1.55,0,0,0,1.55,30H28.45A1.55,1.55,0,0,0,30,28.45V1.55A1.55,1.55,0,0,0,28.45,0ZM18.07,22.93c0,.69-.36,1.11-.74.77l-5-4.84H9.72a.93.93,0,0,1-.94-.92v-4.1a.94.94,0,0,1,.94-.94H10L18.07,21Zm5.56.69a.65.65,0,0,1-1,0L18.07,19v.11L11.85,12.9H12L8.06,9A.67.67,0,1,1,9,8.06l4.09,4.1,4.26-4.1c.31-.28.72,0,.72.75v8.32l5.53,5.54A.65.65,0,0,1,23.63,23.62Z"/></g></g></svg>