<svg xmlns="http://www.w3.org/2000/svg" viewBox="0 0 183.54 147.86"><defs><style>.cls-1{fill:#f6eadf;}.cls-2{fill:#3b2741;}</style></defs><title>text</title><g id="图层_2" data-name="图层 2"><g id="图层_1-2" data-name="图层 1"><path class="cls-1" d="M8.76,9.39l.43.06-.61,3.66H1.19a7.62,7.62,0,0,1,3.6-5.85A4.33,4.33,0,0,0,7,3.54Q7,1.28,5,1.16a2.08,2.08,0,0,0-1.65.92.79.79,0,0,0,.06.79,1.21,1.21,0,0,1,.18.73q-.06,1-1.16,1a1,1,0,0,1-1.1-1.1Q1.74.92,5.1.67,8.76.85,9,3.78,9.12,6.34,5.59,8A5.87,5.87,0,0,0,2.48,11.4H6.56Q8.21,11.46,8.76,9.39Z"/><path class="cls-1" d="M15,.67q4,.24,4.15,6.28,0,6.46-4.15,6.46T10.89,7Q11,.91,15,.67Zm0,.49q-2.2.06-2.2,5.79-.06,6.1,2.2,6,2.26.18,2.2-6Q17.23,1.1,15,1.16Z"/><path class="cls-1" d="M27.66,13.11H22.42v-.49q1.77.12,1.71-1.89v-7Q24.25,2,22.6,2V1.52L26,.73v10q-.06,2,1.65,1.89Z"/><path class="cls-1" d="M31.5,5.06,31.08,5l.43-4h7.38V2.13a18.35,18.35,0,0,0-3.48,10.25q0,1-1.1,1t-1-.85q.06-3.23,4.57-9.76H33.52Q32.11,2.68,31.5,5.06Z"/><path class="cls-1" d="M42.85,5.12l2.07.43H47.6V2.62h-3a13.21,13.21,0,0,1-3.78,3.72l-.3-.18A15.41,15.41,0,0,0,43.64,0l2.13.55c.24,0,.34.08.3.24s-.24.45-.73.61a.65.65,0,0,0-.12.24,2,2,0,0,0-.37.61h6.77l1-1.4L54.37,2.2c.12,0,.16.1.12.18s-.14.2-.43.24H49.31V5.55h2.13l1-1.22,1.52,1.16a.2.2,0,0,1,.12.18c0,.12-.12.2-.37.24H49.31V9.76h2.74l1.1-1.4,1.77,1.28a.2.2,0,0,1,.12.18c0,.2-.14.3-.43.3H49.31q.06,2,.06,3.29c.08.24,0,.41-.37.49h-.24a8.87,8.87,0,0,1-1.28.12q.06-1.46.06-3.9H40.41V9.76h2.5V8.42q0-.61-.06-1.77ZM47.6,9.76V5.92h-3V9.76Z"/><path class="cls-1" d="M60.17,12.93q2.32-.12,2.38-5.61a2.87,2.87,0,0,1-2.62,1.53Q56.63,8.66,56.45,5,56.75.92,60.29.67q4.08.12,4.21,6.1,0,6.65-4.45,6.65-3-.12-3.17-2.07a1,1,0,0,1,1-1.1q1,.06,1,.92a.91.91,0,0,1-.24.67q-.18.18,0,.49A1.76,1.76,0,0,0,60.17,12.93Zm.24-11.77q-2,.24-2.07,3.78.12,3,2,3.23,2.2-.12,2.26-3.48T60.41,1.16Z"/><path class="cls-1" d="M76,1.46l.61-1,1.89.73c.16.08.24.18.24.3s-.22.49-.67.73V4.45q0,3.11.12,7.26,0,2-2.87,2.26-.12-1.52-2.87-1.89l.06-.3,2.74.12q1.1.06,1.1-.92V8.72h-6A6.64,6.64,0,0,1,66.08,14l-.24-.18q3.11-2.68,3-8.29V3.9q0-2.07-.06-3l2.2.55Zm-5.37,3.9a20.08,20.08,0,0,1-.18,2.93h5.92v-3H70.66Zm5.73-.49v-3H70.66v3Z"/><path class="cls-1" d="M84.62,7.2V6.53q3-.37,3-2.93-.06-2.32-2-2.44a1.88,1.88,0,0,0-1.65.92.79.79,0,0,0,.06.67.6.6,0,0,1,.18.61q-.06.79-1,.85a.94.94,0,0,1-1-1Q82.61.79,86,.67q3.48.18,3.66,3-.12,2.5-3.17,3.17,3.35.49,3.42,3.35-.18,3-4.15,3.23-3.42-.12-3.6-2.32a1,1,0,0,1,1.1-1.1q1,.06,1,.92a.81.81,0,0,1-.31.67.46.46,0,0,0,0,.55,1.9,1.9,0,0,0,1.71.73q2.2-.12,2.26-2.68Q87.85,7.32,84.62,7.2Z"/><path class="cls-1" d="M96,.67q4,.24,4.15,6.28,0,6.46-4.15,6.46T91.82,7Q91.94.91,96,.67Zm0,.49q-2.2.06-2.2,5.79-.06,6.1,2.2,6,2.26.18,2.2-6Q98.16,1.1,96,1.16Z"/><path class="cls-1" d="M111.94,13.78V12.56h-6.4v.67q.12.49-.37.55a6.77,6.77,0,0,1-1.52.18q.12-3.41.12-6.83V4.51q0-.49-.06-2.07V.79L106,1.4h5.55l.61-1,2,.73c.16.08.24.18.24.3,0,.29-.2.55-.61.79v4.7q0,4.82.06,6.16,0,.55-.37.61A7.42,7.42,0,0,1,111.94,13.78Zm0-12h-6.4V6.71h6.4Zm-6.4,5.25V12.2h6.4V7.07Z"/><path class="cls-1" d="M132.13,16l-.24.18a10.35,10.35,0,0,1-3.54-7.93,10.7,10.7,0,0,1,3.54-8l.24.18a13.39,13.39,0,0,0-2.2,7.81A13.1,13.1,0,0,0,132.13,16Z"/><path class="cls-1" d="M135.06,6.28a19.37,19.37,0,0,0,.12-2.44V2.68q0-1-.06-2.13l2.13.55h6.22l.61-1,1.71.67c.16.08.24.18.24.3s-.18.47-.67.67V4.33q.06,1,.06,1.4a.33.33,0,0,1-.3.43,8.15,8.15,0,0,1-1.34.12V5.49h-7v.24a.39.39,0,0,1-.37.43,1.14,1.14,0,0,1-.37.06l1.65.37c.16,0,.24.12.24.24s-.2.39-.61.43a6.85,6.85,0,0,1-.49.92h2.62q0-1.34-.06-2.2l2.13.18c.12,0,.18.1.18.18q0,.37-.61.55V8.17h2.74l1-1.28L146.52,8a.2.2,0,0,1,.12.18c0,.2-.14.3-.43.3h-5.06v1.89h2.26l1-1.22,1.52,1.16a.2.2,0,0,1,.12.18c0,.12-.14.2-.43.24h-4.45v2h3.6l1-1.16,1.77,1.16c.08.08.12.14.12.18s-.14.24-.43.24H133.1v-.43h6.4v-2H135.3v-.37h4.21V8.54H136.7a11.39,11.39,0,0,1-2.87,2.93l-.31-.18a17.69,17.69,0,0,0,1.83-3.6,4.79,4.79,0,0,0,.37-1.4Zm8.72-4.82h-7V3.11h7Zm-7,2V5.12h7V3.48Z"/><path class="cls-1" d="M150.85,10.18l1.77.79a.36.36,0,0,1,.18.31c0,.24-.24.35-.61.3a9.34,9.34,0,0,1-3.48,2.32l-.18-.18A12.11,12.11,0,0,0,150.85,10.18Zm6.4-6.34V.91l1.89.49h1.46l.55-.92,1.65.61c.16.08.24.18.24.3s-.2.43-.61.67V5.24q.06,2.75.18,6.89,0,1.52-2.07,1.77.06-1.16-2-1.4l.06-.31,1.46.06q.79,0,.79-.67V8.35h-2.2a6.87,6.87,0,0,1-3.6,5.73l-.18-.18a9.18,9.18,0,0,0,2-4.21h-8.35V9.27h1.59V2.87h-1.4V2.44h1.4q0-1-.06-2.07l2,.18c.16,0,.24.06.24.18s-.2.43-.61.55V2.44h2.07V1.52c0-.49-.06-.85-.06-1.1l2,.12c.16,0,.24.1.24.18,0,.24-.2.43-.61.55V2.44h.24l.49-.73,1,.73s.06.06.06.18-.12.2-.37.24h-1.4v6.4h.12l.67-.92,1,.73a19.57,19.57,0,0,0,.18-2.87Zm-3.48.85V2.87H151.7V4.7Zm-2.07.43V7h2.07V5.12Zm0,2.26V9.27h2.07V7.38Zm2.68,5a4.61,4.61,0,0,0-1.34-2l.12-.18q2.8.49,2.81,1.58a.91.91,0,0,1-.92,1A.68.68,0,0,1,154.39,12.38ZM158.84,6a15.32,15.32,0,0,1-.12,2h2.2V5.06h-2.07Zm2.07-4.21h-2.07V4.63h2.07Z"/><path class="cls-1" d="M175.61,4.45l1.22-1.58,2,1.46a.36.36,0,0,1,.06.24c0,.12-.12.2-.37.24H164.21V4.45ZM168.23,6l2.38.67c.16,0,.24.12.24.24q0,.49-.73.49A14.13,14.13,0,0,1,164.45,14l-.24-.24A21.86,21.86,0,0,0,167.62,8,14.11,14.11,0,0,0,168.23,6Zm2.2-2.87A7,7,0,0,0,169.27.18l.12-.12q3.23.73,3.23,2.26a1.41,1.41,0,0,1-1.46,1.46Q170.55,3.84,170.43,3.11Zm2,3,.24-.18q4.94,3.35,5.12,6-.06,1.46-1.34,1.58c-.41,0-.65-.18-.73-.67A19.73,19.73,0,0,0,172.44,6.16Z"/><path class="cls-1" d="M179.82.43l.24-.24a10.46,10.46,0,0,1,3.48,8,10.32,10.32,0,0,1-3.48,7.93l-.24-.18A13.1,13.1,0,0,0,182,8.23,13,13,0,0,0,179.82.43Z"/><path class="cls-1" d="M31.5,24.35l.11-.16q2.23.6,2.17,1.63a1.09,1.09,0,0,1-.92,1,.58.58,0,0,1-.6-.54A4.27,4.27,0,0,0,31.5,24.35Zm2.82,4A6.89,6.89,0,0,0,34,30a5.56,5.56,0,0,0,.16,1.36,5.7,5.7,0,0,1,.22,1,1,1,0,0,1-1,1.08q-.92,0-.92-1a4.43,4.43,0,0,1,.05-.6,1.53,1.53,0,0,0,.05-.33,4,4,0,0,0,.16-1q.11-.92-1.25-1.36l.11-.27q1.36.38,1.52-.43l2.12-4.61.22.11Zm-1.79-6.79.11-.16q2.28.44,2.28,1.46a1,1,0,0,1-.92,1,.61.61,0,0,1-.6-.49A3.35,3.35,0,0,0,32.53,21.58Zm6,7,1.85.16a.19.19,0,0,1,.22.22c0,.18-.18.31-.54.38v.27a.89.89,0,0,0-.05.27h2.61l.71-.92,1.3.87c.07,0,.11.05.11.16s-.13.18-.38.22H40.4a6.63,6.63,0,0,0,4.45,1.68l-.05.33q-.76.11-1.19,1.36A4.62,4.62,0,0,1,40,30.21h-.11q-.49,2.82-5,3.47l-.11-.27q3.26-1.36,3.64-3.2H35v-.33h3.47A6.28,6.28,0,0,0,38.5,29Zm-.27-7.49,1.74.16c.14,0,.22.11.22.22s-.16.25-.49.33a3.3,3.3,0,0,1-.87.87H42l.43-.71,1.47.54a.32.32,0,0,1,.16.27c0,.15-.11.33-.43.54v2.82q.05,1.52.05,2t-.27.49a4,4,0,0,1-1.14.16V23H37v5.54a.29.29,0,0,1-.27.38,7,7,0,0,1-1.14.11q.05-1,.05-3.37V22.28l1.57.38h.92A4.7,4.7,0,0,0,38.23,21.09Zm-1,7.33-.16-.11a11.83,11.83,0,0,0,1.57-2.44h-1.3v-.27H39.1v-.81c0-.14,0-.42-.05-.81v-.71l1.36.16c.14,0,.22,0,.22.11s-.11.33-.43.43v1.63h.6l.49-.65.87.6s.05.05.05.16-.11.16-.33.16H40.18v.38Q42,26.57,42,27.33a.61.61,0,0,1-.6.71.46.46,0,0,1-.49-.33,2.3,2.3,0,0,0-.71-1.14,7.24,7.24,0,0,0,.05.76V28q0,.33-.22.38a3.05,3.05,0,0,1-1,.16q0-.87.05-1.57A8.87,8.87,0,0,1,37.25,28.42Zm.05-4.61.16-.11q1.3.33,1.36,1a.63.63,0,0,1-.6.65.34.34,0,0,1-.38-.38A2.63,2.63,0,0,0,37.31,23.8Zm3.58-.16,1,.43a.14.14,0,0,1,.16.16c0,.18-.11.27-.43.27a5.49,5.49,0,0,1-1.14.92l-.16-.11A6.7,6.7,0,0,0,40.89,23.64Z"/><path class="cls-1" d="M46.75,33.57q.11-1.74.11-4V26.14q0-2.06-.05-3.09l1.85.16c.14,0,.22.05.22.16s-.18.33-.54.43v7.06q.05,1.41.05,2.17c0,.22-.13.36-.38.43A3.59,3.59,0,0,1,46.75,33.57Zm1.68-12.32.05-.16q2.61.38,2.61,1.68a1,1,0,0,1-1,1.09q-.49.05-.6-.49A5.53,5.53,0,0,0,48.44,21.25Zm7.27,1.52H52.13v-.33h3.26l.49-.92,1.74.71a.26.26,0,0,1,.22.27c0,.22-.18.42-.54.6v4.4q0,2.44.05,4.51.05,1.52-2.23,1.63.16-1.25-2.06-1.52l.05-.27,1.85.11q.81.06.76-.6Z"/><path class="cls-1" d="M70.85,23.1l.6-.87,1.09.81a.22.22,0,0,1,.11.22c0,.11-.11.16-.33.16H69v.38a20.91,20.91,0,0,0,.54,4.72q.11-.27.27-.76A7.08,7.08,0,0,0,70,27a10.57,10.57,0,0,0,.43-2.23l1.63.43c.14,0,.22.11.22.22s-.22.33-.54.33a13.77,13.77,0,0,1-1.68,4.4,3.5,3.5,0,0,0,.54.87q.38.44.6,0l.71-1.68.27.05L72,31.29a.69.69,0,0,0,.16.71.15.15,0,0,0,.05.11.59.59,0,0,1,.16.43c0,.43-.31.67-.81.71a3.65,3.65,0,0,1-2.55-1.79,10.65,10.65,0,0,1-3.69,2.12l-.16-.22a12.14,12.14,0,0,0,3.31-3.15,20.39,20.39,0,0,1-.92-6.68v-.11H62v3.8H63.2v-.05a.43.43,0,0,0,.05-.16q.11-.54.27-1.63l1.63.22c.14,0,.22.11.22.22s-.2.33-.49.33q-.16.6-.33,1.08h.87l.43-.65,1.36.6c.14.07.22.16.22.27s-.18.33-.54.43a7.12,7.12,0,0,1-1,2.55q1,.44,1,1-.05.76-.65.81a.68.68,0,0,1-.6-.33l-.27-.27A1.57,1.57,0,0,0,65,31.4a9.68,9.68,0,0,1-3.64,1.79l-.16-.27a10.29,10.29,0,0,0,2.82-2.17A5.3,5.3,0,0,0,62.33,30,11.61,11.61,0,0,0,63,27.77a.91.91,0,0,0,.05-.22H62q0,4.07-2.61,6l-.22-.16a12.89,12.89,0,0,0,1.41-7V25.27q0-1.19-.05-2.61l2.12.43H67.6c0-.47,0-1.14-.11-2l1.79.16c.18,0,.27.07.27.22s-.24.38-.6.49V23.1Zm-5.43,1.85.65-.92,1.19.87a.18.18,0,0,1,.11.16c0,.11-.13.18-.38.22H62.33v-.33Zm-1.68,4.94a2.35,2.35,0,0,1,.43.05,1.81,1.81,0,0,1,.43.11,8.19,8.19,0,0,0,1-2.5H64.45A18.34,18.34,0,0,1,63.74,29.88Zm5.81-8.31.11-.16q1.57,0,1.57.81c0,.43-.31.67-.81.71a.52.52,0,0,1-.43-.38A2.47,2.47,0,0,0,69.55,21.58Z"/><path class="cls-1" d="M83.56,25.92v-.76H76.77v.16q.16,5.75-3.15,8.31l-.22-.16a15.21,15.21,0,0,0,1.85-8.2V24.4q0-1-.05-2.66l2,.54h6.08l.49-.87,1.57.6c.14.07.22.16.22.27s-.16.43-.49.65v2.39a.46.46,0,0,1-.33.49A7.22,7.22,0,0,1,83.56,25.92Zm0-3.31H76.77v2.23h6.79Zm.38,3.64,1.52,1.09a.32.32,0,0,1,.16.27q0,.27-.33.27a1.73,1.73,0,0,1-.43-.11,16.82,16.82,0,0,1-4.89,2v1.41c0,.4.25.6.76.6h2.93q.6.05.81-.65l.6-2.06.27.05.11,1.68a.94.94,0,0,0,.33.76.64.64,0,0,1,.33.54q-.11.87-2,.92H79.87q-1.47.11-1.36-1.41V28q-.05-1.46-.05-2.28l1.9.22c.14,0,.22.05.22.16s-.24.38-.6.49v2.66A12,12,0,0,0,83.94,26.25Z"/><path class="cls-1" d="M89,30.26l1.52.71c.14.07.22.16.22.27s-.25.29-.65.22a9.33,9.33,0,0,1-2.88,2.06l-.16-.22A9.42,9.42,0,0,0,89,30.26Zm5.43-7.87,1.68.43a9.56,9.56,0,0,0,3-1.52l1.09,1.14a.22.22,0,0,1,.11.27c0,.11-.09.18-.27.22a.72.72,0,0,1-.43-.16,18.41,18.41,0,0,1-3.69.49v2.82h2.12L98.92,25l1.36,1a.17.17,0,0,1,.11.16c0,.11-.13.18-.38.22H98.76v3.26q.05,2.44.05,3.37,0,.38-.27.38a5,5,0,0,1-1.19.16q.05-4.23.05-4.94V26.41H95.93q.16,5.43-3.09,7.22l-.22-.16a8.39,8.39,0,0,0,1.68-3.64H87.19V29.5h1.3V23.64H87.36v-.38h1.09q0-1.36-.05-1.9l1.79.16c.14,0,.22.05.22.16s-.22.42-.54.49v1.09h1.74a6.48,6.48,0,0,1-.05-1c0-.43-.05-.76-.05-1l1.79.16c.14,0,.22.11.22.22s-.18.38-.54.49v1.09h.16l.49-.65.81.65c.07,0,.11.05.11.16s-.11.18-.33.22H92.95V29.5h.22l.6-.87.65.49A13.28,13.28,0,0,0,94.58,27V25.21Q94.58,24.24,94.47,22.39Zm-2.88,3V23.64H89.85v1.74Zm-1.74.33v1.74h1.74V25.7Zm0,2.06V29.5h1.74V27.77Zm2.23,4.45a4.8,4.8,0,0,0-1.14-1.79l.11-.16q2.44.54,2.39,1.52a.77.77,0,0,1-.81.76A.64.64,0,0,1,92.08,32.22Z"/><path class="cls-1" d="M106,21.36l2.12.22c.22,0,.31.07.27.22s-.18.4-.54.43q1,6.95,6.35,9.5l-.11.33a2.17,2.17,0,0,0-1.74,1.3q-4.13-2.77-4.67-9.5-.11,7.22-6.57,9.77l-.22-.27a11.43,11.43,0,0,0,5.16-9.23A14.09,14.09,0,0,0,106,21.36Z"/><path class="cls-1" d="M125.52,29.07l.87-1.19L127.91,29c.11,0,.14.09.11.16s-.13.18-.38.22h-3.09a8.1,8.1,0,0,1-1.19,1.85q3.09.33,3,1.41-.05.87-.6,1a1.23,1.23,0,0,1-.81-.33,6.91,6.91,0,0,0-2.71-1.09q-1.9,1.3-6.68,1.41l-.11-.27a23.15,23.15,0,0,0,5-1.52q-1.25-.27-3-.49a.11.11,0,0,1-.05-.16,19.46,19.46,0,0,0,1.41-1.79H115v-.33h4a2.38,2.38,0,0,1,.22-.43,8.61,8.61,0,0,0,.49-.87l1.57.43c.14,0,.22.11.22.22s-.22.31-.54.27a.16.16,0,0,0-.05.11,1.16,1.16,0,0,1-.22.27Zm-9.66-5.75a2.28,2.28,0,0,0,.92-1.41H117a7,7,0,0,1,.27.92H121c-.22,0-.34-.22-.38-.54a2,2,0,0,0-.54-1.14l.11-.11q2.12,0,2.06.92a1,1,0,0,1-.81.87h4.13l.65-.87,1.52,1a.47.47,0,0,1,.16.33q-.05.38-.65.33l-.05.05a15.54,15.54,0,0,1-1.57.87l-.11-.11q-.05.22-.49.49v.49q0,1.68.05,2.33c0,.25-.09.4-.27.43a4.49,4.49,0,0,1-1.19.16v-.6h-4.51v.11a.46.46,0,0,1-.33.49,5.74,5.74,0,0,1-1.14.11q.05-.81.05-2.33V23.86l2,.43h3.75l.43-.81,1.47.54.05.05a0,0,0,0,1,.05.05l.38-1h-8.52a1.82,1.82,0,0,1,.05.43A1.28,1.28,0,0,1,116.13,25q-.71-.05-.76-.87Q115.31,23.7,115.86,23.31Zm7.76,1.3h-4.51v1.19h4.51Zm-4.51,1.52v1.25h4.51V26.14Zm.16,4.83q.38,0,1.14.05a8.22,8.22,0,0,1,1.14.05,5.9,5.9,0,0,0,1.3-1.68h-2.33Q119.93,30.21,119.28,31Z"/><path class="cls-1" d="M140.5,26.9a10.58,10.58,0,0,1-5-4.34,13.2,13.2,0,0,1-6.62,5l-.16-.22A20.33,20.33,0,0,0,133.12,23a9.81,9.81,0,0,0,1-2l2,.49c.14.07.22.16.22.27s-.16.36-.6.43a13.07,13.07,0,0,0,6.24,2.77l-.05.33A2,2,0,0,0,140.5,26.9ZM139,28.36l.87-1.19,1.52,1.09a.17.17,0,0,1,.11.16c0,.18-.15.27-.43.27h-5.32a27.84,27.84,0,0,1-3.37,2.82l5.37-.16a8.52,8.52,0,0,0-1.3-1.9l.16-.16q3.42,1.41,3.53,3a1.14,1.14,0,0,1-1.09,1.25.61.61,0,0,1-.6-.49,3.06,3.06,0,0,0-.43-1q-3.15.65-6.35,1.09c-.07.4-.22.6-.43.6s-.18-.09-.22-.27l-.65-1.9a1.79,1.79,0,0,0,1.36-.38,13.61,13.61,0,0,0,1.52-2.44h-4v-.33ZM136.1,26l.81-1,1.3.92a.17.17,0,0,1,.11.16c0,.11-.13.18-.38.22h-5.7V26Z"/><path class="cls-1" d="M153.2,22.39l1-1.25,1.63,1.19a.17.17,0,0,1,.11.16q0,.22-.43.22h-9.61v3.15a13.6,13.6,0,0,1-.6,4.67,7.61,7.61,0,0,1-2.28,3l-.27-.16A11.93,11.93,0,0,0,144,30.1a19.75,19.75,0,0,0,.33-4.07V23.69q-.05-1.19-.05-1.85l2,.54Zm-2.82,8.9v-5.1h-3.8v-.38h6.79l.92-1.19,1.57,1.14a.32.32,0,0,1,.05.22c0,.11-.13.18-.38.22H152v1.52q0,2.77.05,4.34,0,1.3-2.39,1.52-.05-1.09-2-1.36l.05-.27,1.85.05Q150.38,32.11,150.38,31.29Z"/><circle class="cls-1" cx="12.76" cy="71.85" r="11.5"/><path class="cls-2" d="M15,78.08H12.76V74.36l4.45-6.07H7.42l4.45,6.07v3.72H9.65a.45.45,0,0,0-.45.44V79h6.23v-.44A.45.45,0,0,0,15,78.08Z"/><path class="cls-2" d="M17.21,64.73a2.67,2.67,0,0,0-2.67,2.67h.89a1.78,1.78,0,1,1,1.78,1.78v.89a2.67,2.67,0,1,0,0-5.34Z"/><path class="cls-1" d="M28.72,57l.21-.21q4.42.84,4.42,2.84a2.16,2.16,0,0,1-1.79,2.1q-.95.11-1.16-.95A7.86,7.86,0,0,0,28.72,57Zm5.47,8.2a11.12,11.12,0,0,0,0,5.26,6.7,6.7,0,0,1,.42,1.89,1.8,1.8,0,0,1-1.89,1.89,1.76,1.76,0,0,1-1.89-1.79,10.44,10.44,0,0,1,.32-1.79,1.71,1.71,0,0,1,.1-.42,15.08,15.08,0,0,0,.11-1.58q.1-1.79-2.42-2.52l.21-.53q2.52.53,2.94-.84L36.4,54.39l.53.21ZM30.4,51.13l.32-.32q4.63.63,4.52,2.73a1.8,1.8,0,0,1-1.68,1.89,1.15,1.15,0,0,1-1.16-.84A8.34,8.34,0,0,0,30.4,51.13Zm11.15,5.57V53H36.29v-.63H49.65l1.68-2.21,2.95,2.1a.34.34,0,0,1,.21.32c0,.21-.25.35-.74.42H48.28v4.31h1.37l.95-1.58,2.73,1.05c.28.14.42.32.42.53s-.32.74-.95,1.16v8q.1,4.63.1,6.73,0,.74-.53.84a4.37,4.37,0,0,0-.74.1,8.94,8.94,0,0,1-1.58.21V72.06H39.66v1.26a.57.57,0,0,1-.53.74,8.78,8.78,0,0,1-2.31.32q0-.95.1-2.52.1-4.1.1-5.79V58.92q-.11-1.58-.1-2.31l3.47.74h1.16ZM48.17,65q-2.52.11-2.42-2.52V58H44.07q-.21,6.31-4.1,9l-.32-.32v1.16H50.07V65H48.17Zm-8.52,1.58q1.89-3,1.89-8.62H39.66Zm0,1.89v3H50.07v-3Zm4.42-11.78v.63h1.68V53H44.07Zm6,1.26H48.28v3.58q-.11.95.95.84h.84Z"/><path class="cls-1" d="M78.36,61.44A20.5,20.5,0,0,1,68.58,53,25.58,25.58,0,0,1,55.75,62.7l-.32-.42A39.34,39.34,0,0,0,64.06,54a19,19,0,0,0,1.89-3.79l3.79.95c.28.14.42.32.42.53q.1.63-1.16.84a25.35,25.35,0,0,0,12.1,5.36l-.1.63A3.91,3.91,0,0,0,78.36,61.44Zm-2.84,2.84L77.2,62l2.95,2.1a.34.34,0,0,1,.21.32q0,.53-.84.53H69.21a54,54,0,0,1-6.52,5.47l10.41-.32a16.43,16.43,0,0,0-2.52-3.68l.32-.32q6.63,2.74,6.84,5.79a2.22,2.22,0,0,1-2.1,2.42,1.18,1.18,0,0,1-1.16-.95,5.94,5.94,0,0,0-.84-2q-6.1,1.26-12.31,2.1c-.14.77-.42,1.16-.84,1.16-.21,0-.35-.18-.42-.53L58.8,70.38a3.46,3.46,0,0,0,2.63-.74,26.35,26.35,0,0,0,2.94-4.73H56.69v-.63Zm-5.68-4.52,1.58-1.89,2.52,1.79a.34.34,0,0,1,.21.32c0,.21-.25.35-.74.42h-11v-.63Z"/><path class="cls-1" d="M31.52,90q.06-2.07.06-4.44V79.16l1.89.41H34l.47-.83,1.48.59c.16.08.24.18.24.29s-.18.43-.53.59V83A18.72,18.72,0,0,0,38,78l1.83.47c.16,0,.24.06.24.18s-.2.38-.59.41q-.18.35-.35.65h1.36l.65-.83,1.77,1a.4.4,0,0,1,.18.35q0,.41-.77.36a14.27,14.27,0,0,1-1.83,1.48h2.13l.53-.83,1.6.65c.16.08.24.18.24.29s-.18.4-.53.59v.83q0,1.06.06,2.31a.38.38,0,0,1-.35.41,3.73,3.73,0,0,1-1.18.18v-.77H41a2.12,2.12,0,0,1-.18.59l1.6.18c.16,0,.24.12.24.24s-.16.34-.47.41v2.25q-.06.53.53.47h.41q.59.06.83-.71l.65-1.83.24.06L44.89,89a.76.76,0,0,0,.3.71.5.5,0,0,1,.3.41q-.06,1-2,1H42.11q-1.48.12-1.42-1.36v-3q-1,3.19-5.8,4.85l-.18-.3q4-2.37,4.61-5.68H38v.77a.32.32,0,0,1-.3.41,6.65,6.65,0,0,1-1.18.12c0-.63.06-1.32.06-2.07V82.71q-.36.3-.83.65l-.12-.12v.95q0,1.6.06,4.38a.5.5,0,0,1-.35.53,5.16,5.16,0,0,1-1.12.12v-1H33v1.12c0,.32-.1.49-.3.53A4.55,4.55,0,0,1,31.52,90Zm2.72-10.12H33v3.73h1.24ZM33,84.07v3.79h1.24V84.07Zm5.92-4a9.31,9.31,0,0,1-1.3,1.78l.83.24h1.42l.83-2Zm.53,5.33a16.07,16.07,0,0,0,.24-3H38v3Zm3.49-3H41.28a28.19,28.19,0,0,1-.24,3h1.89Z"/><path class="cls-1" d="M57.61,90.51l1.06-1.24,1.83,1.24s.06.06.06.18-.14.24-.41.24H46.25v-.42h5.62V81.29q0-2-.06-3.2l2.25.18c.16,0,.24.06.24.18s-.18.43-.65.59v4.44h3l1-1.36,1.72,1.24a.34.34,0,0,1,.06.24c0,.12-.14.2-.41.24H53.65v6.68Z"/><path class="cls-1" d="M72.46,82.41l.77-1.54,2.13,1a.24.24,0,0,1,.12.24q.06.18-.35.3l-7.81,1.36v4.85q-.12.89.89.77H71.4a1,1,0,0,0,1.18-.89l.83-3,.3.06L73.82,88a1.44,1.44,0,0,0,.41,1.07.85.85,0,0,1,.35.65q-.24,1.12-2.25,1.18H67.14a1.41,1.41,0,0,1-1.6-1.6V84.13l-4.14.71-.06-.41,4.2-.77V82.11q0-.53-.06-2.07V78.33l2.25.18a.16.16,0,0,1,.18.18c0,.24-.2.43-.59.59v4.08Z"/><path class="cls-1" d="M81,90.16V88.68H79.09V90.1a.36.36,0,0,1-.3.41,9.67,9.67,0,0,1-1.24.12q.06-.77.06-1.78V82.71q0-2.13-.06-3.55l2,.47h1.18l.53-.83,1.6.59.06.06a.35.35,0,0,1,.18.3q0,.3-.59.59v6.15q.06,2.25.06,3.14c0,.24-.06.35-.3.35A4.31,4.31,0,0,1,81,90.16ZM81,80H79.09v4H81Zm-1.89,4.38v4H81v-4Zm9.76-2.6.71-1,1.3.95a.19.19,0,0,1,.12.18q0,.18-.35.24H88.44v1.48q0,2.07.12,6,.06,1.77-2.48,1.89.06-1.3-2.19-1.48l.06-.3,2,.06q1,.06.95-.77V82.11H82.76v-.36h4.08q0-.83-.06-2.19V78.09l2,.18c.16,0,.24.06.24.18s-.24.41-.59.53v2.78Zm-5.38,1.66q2.37.83,2.31,2.07a1.12,1.12,0,0,1-1.06,1.18q-.53,0-.65-.65a7.11,7.11,0,0,0-.71-2.48Z"/><path class="cls-1" d="M103,90.34l1.06-1.24,1.83,1.18a.47.47,0,0,1,.06.18c0,.16-.14.24-.41.24H91.87v-.35h6V87.56H93.05V87.2h4.79q0-1.36-.06-2.49l2.13.18c.16,0,.24.06.24.18s-.2.41-.59.53v1.6h2.31l1-1.3,1.72,1.24a.25.25,0,0,1,.06.18c0,.12-.12.2-.35.24H99.56v2.78Zm-.47-10.83,1-1.36,1.72,1.24a.35.35,0,0,1,.06.24c0,.12-.14.2-.41.24H99.26a24.43,24.43,0,0,1-3.67,3.31l6.21-.35a12.79,12.79,0,0,0-1.6-1.89l.12-.24q4.26,1.66,4.26,3.31-.06,1.13-1,1.24a1.05,1.05,0,0,1-.83-.59,5.68,5.68,0,0,0-.47-1.12,67.45,67.45,0,0,1-7.75,1.36q0,.65-.35.65c-.12,0-.2-.1-.24-.3l-.59-2.07a1.91,1.91,0,0,0,1.48-.59,15.42,15.42,0,0,0,2-2.72H92.4v-.36Z"/><path class="cls-1" d="M117.9,82.41l.77-1.54,2.13,1a.24.24,0,0,1,.12.24q.06.18-.35.3l-7.81,1.36v4.85q-.12.89.89.77h3.19A1,1,0,0,0,118,88.5l.83-3,.3.06.12,2.43a1.44,1.44,0,0,0,.41,1.07.85.85,0,0,1,.35.65q-.24,1.12-2.25,1.18h-5.21a1.41,1.41,0,0,1-1.6-1.6V84.13l-4.14.71-.06-.41,4.2-.77V82.11q0-.53-.06-2.07V78.33l2.25.18a.16.16,0,0,1,.18.18c0,.24-.2.43-.59.59v4.08Z"/><path class="cls-1" d="M126.42,90.16V88.68h-1.89V90.1a.36.36,0,0,1-.3.41,9.67,9.67,0,0,1-1.24.12q.06-.77.06-1.78V82.71q0-2.13-.06-3.55l2,.47h1.18l.53-.83,1.6.59.06.06a.35.35,0,0,1,.18.3q0,.3-.59.59v6.15q.06,2.25.06,3.14c0,.24-.06.35-.3.35A4.31,4.31,0,0,1,126.42,90.16Zm0-10.18h-1.89v4h1.89Zm-1.89,4.38v4h1.89v-4Zm9.76-2.6.71-1,1.3.95a.19.19,0,0,1,.12.18q0,.18-.35.24h-2.19v1.48q0,2.07.12,6,.06,1.77-2.48,1.89.06-1.3-2.19-1.48l.06-.3,2,.06q1,.06.95-.77V82.11h-4.08v-.36h4.08q0-.83-.06-2.19V78.09l2,.18c.16,0,.24.06.24.18s-.24.41-.59.53v2.78Zm-5.38,1.66q2.37.83,2.31,2.07a1.12,1.12,0,0,1-1.06,1.18q-.53,0-.65-.65a7.11,7.11,0,0,0-.71-2.48Z"/><path class="cls-1" d="M148.13,89.86l1-1.36L151,89.86c.08,0,.12.06.12.18s-.12.12-.35.12H137.36v-.3Zm-.47-10,.95-1.24,1.66,1.24c.12,0,.16.1.12.18s-.12.2-.35.24h-12v-.41Zm-.83,4.73.89-1.18,1.72,1.18a.19.19,0,0,1,.12.18c0,.12-.14.2-.41.24H139V84.6Z"/><path class="cls-1" d="M163.34,83.71l1.18-1.54,2,1.42a.24.24,0,0,1,.12.24c0,.12-.16.2-.47.24h-6v3.73q.06,2,.06,3.19a.37.37,0,0,1-.35.47q-1.06.12-1.6.12,0-.53.06-1.48.06-2.84.06-3.55V84.07h-6v-.35h6V80.34q-.06-1.48-.06-2.25l2.25.18a.23.23,0,0,1,.24.18q0,.35-.65.53v4.73Z"/><path class="cls-1" d="M171.74,78.68l2.13.77c.16.08.24.18.24.3s-.26.38-.77.41a12.94,12.94,0,0,1-5.74,5.8l-.24-.3a18.11,18.11,0,0,0,3.79-5.38A5.38,5.38,0,0,0,171.74,78.68Zm4.67,5.56.59-1,.47.24a8.82,8.82,0,0,1-2-4.08q-.18-.59-.41-1.18l1.24.12h.06a.19.19,0,0,1,.12.18c0,.12-.2.26-.59.41a8.82,8.82,0,0,0,5.92,4.56l-.06.3a2.8,2.8,0,0,0-1.42,1.72,7.47,7.47,0,0,1-1.48-.83.89.89,0,0,1-.47.3q0,1.36-.24,3.85t-3.25,2.66q.12-1.3-2.07-1.72l.12-.3,2,.18q1.36.12,1.48-1.12a29.48,29.48,0,0,0,.3-3.91h-3.14q-.18,5.86-6,7.16l-.12-.24q4.38-2.48,4.38-6.92h-1.6v-.35Z"/><circle class="cls-1" cx="11.5" cy="129.56" r="11.5"/><path class="cls-2" d="M11.11,122.14a.36.36,0,1,0-.71,0v2.46h0V125h0v1a.36.36,0,0,1-.71,0h0l-.06-1.34-.09-2.55a.36.36,0,1,0-.71,0l-.08,2.55L8.69,126h0A.36.36,0,1,1,8,126H8v-1H8v-.42H8v-2.46a.36.36,0,1,0-.71,0l-.21,4.64a2.14,2.14,0,0,0,1.42,2v7.83a.71.71,0,1,0,1.42,0v-7.83a2.14,2.14,0,0,0,1.42-2Z"/><path class="cls-2" d="M15.59,121.79h-.08c-.38.07-1.92.61-2.18,4.59a22,22,0,0,0,0,3.17,4.4,4.4,0,0,0,1.2,1.62v5.5h0a.71.71,0,0,0,1.41,0h0V122.14a.36.36,0,0,0-.36-.36"/><path class="cls-1" d="M28.77,127.52q.1-3.68.1-7.89V108.16l3.37.74h.95l.84-1.47,2.63,1.05c.28.14.42.32.42.53q0,.63-.95,1.05V115a33.29,33.29,0,0,0,4.1-8.94l3.26.84c.28,0,.42.11.42.32q0,.63-1.05.74-.32.63-.63,1.16h2.42l1.16-1.47L49,109.43a.71.71,0,0,1,.32.63c0,.49-.46.7-1.37.63a25.5,25.5,0,0,1-3.26,2.63h3.79l.95-1.47L52.22,113c.28.14.42.32.42.53s-.32.7-.95,1.05v1.47q0,1.89.11,4.1a.67.67,0,0,1-.63.74,6.61,6.61,0,0,1-2.1.32v-1.37H45.6a3.75,3.75,0,0,1-.32,1.05l2.84.32c.28.07.42.21.42.42s-.28.6-.84.74v4q-.11.95.95.84h.74q1.05.11,1.47-1.26L52,122.68l.42.11.1,2.95a1.35,1.35,0,0,0,.53,1.26.89.89,0,0,1,.53.74q-.11,1.79-3.47,1.79H47.6q-2.63.21-2.52-2.42v-5.26q-1.79,5.68-10.31,8.62l-.32-.53q7.15-4.21,8.2-10.1H40.34v1.37a.57.57,0,0,1-.53.74,11.73,11.73,0,0,1-2.1.21q.1-1.68.11-3.68v-4c-.42.35-.91.74-1.47,1.16l-.21-.21v1.68q0,2.84.11,7.78a.89.89,0,0,1-.63.95,9.11,9.11,0,0,1-2,.21v-1.79H31.4v2q0,.84-.53.95A8,8,0,0,1,28.77,127.52Zm4.84-18H31.4v6.63h2.21Zm-2.21,7.36v6.73h2.21v-6.73Zm10.52-7.15a16.63,16.63,0,0,1-2.31,3.16l1.47.42H43.6l1.47-3.58Zm.95,9.47a28.6,28.6,0,0,0,.42-5.26H40.34v5.26Zm6.21-5.26H46.12a50.15,50.15,0,0,1-.42,5.26h3.37Z"/><path class="cls-1" d="M75.36,121.52,77,119.21,80,121.42c.21.07.28.18.21.32s-.25.35-.74.42h-6a15.67,15.67,0,0,1-2.31,3.58q6,.63,5.89,2.73-.11,1.68-1.16,1.89a2.38,2.38,0,0,1-1.58-.63,13.41,13.41,0,0,0-5.26-2.1q-3.68,2.53-12.94,2.74l-.21-.53a44.88,44.88,0,0,0,9.78-2.95q-2.42-.52-5.89-.95a.21.21,0,0,1-.11-.32,37.84,37.84,0,0,0,2.73-3.47H55.06v-.63h7.78a4.53,4.53,0,0,1,.42-.84,16.5,16.5,0,0,0,.95-1.68l3.05.84c.28.07.42.21.42.42q-.11.63-1.05.53a.3.3,0,0,0-.1.21,2.26,2.26,0,0,1-.42.53ZM56.64,110.37a4.42,4.42,0,0,0,1.79-2.73h.42a13.46,13.46,0,0,1,.53,1.79h7.26q-.63-.1-.74-1.05a3.87,3.87,0,0,0-1.05-2.21l.21-.21q4.1,0,4,1.79a1.88,1.88,0,0,1-1.58,1.68h8l1.26-1.68,2.94,1.89a.91.91,0,0,1,.32.63q-.11.74-1.26.63l-.11.1a30.11,30.11,0,0,1-3.05,1.68l-.21-.21q-.11.42-.95.95v.95q0,3.26.1,4.52,0,.74-.53.84a8.79,8.79,0,0,1-2.31.32v-1.16H63v.21a.89.89,0,0,1-.63.95,11.23,11.23,0,0,1-2.21.21q.1-1.58.1-4.52v-4.31l3.89.84h7.26l.84-1.58L75,111.74l.11.11a.09.09,0,0,1,.1.11l.74-1.89H59.48a3.54,3.54,0,0,1,.1.84,2.49,2.49,0,0,1-2.42,2.73q-1.37-.1-1.47-1.68Q55.59,111.11,56.64,110.37Zm15,2.52H63v2.31h8.73ZM63,115.84v2.42h8.73v-2.42Zm.32,9.36q.73,0,2.21.11a15.68,15.68,0,0,1,2.21.11,11.46,11.46,0,0,0,2.52-3.26H65.69Q64.53,123.73,63.27,125.2Z"/><path class="cls-1" d="M28.08,146.14q.06-2.07.06-4.44v-6.45l1.89.41h.53l.47-.83,1.48.59c.16.08.24.18.24.29s-.18.43-.53.59v2.78a18.72,18.72,0,0,0,2.31-5l1.83.47c.16,0,.24.06.24.18s-.2.38-.59.41q-.18.35-.35.65H37l.65-.83,1.77,1a.4.4,0,0,1,.18.35q0,.41-.77.36A14.27,14.27,0,0,1,37,138.16h2.13l.53-.83,1.6.65c.16.08.24.18.24.29s-.18.4-.53.59v.83q0,1.06.06,2.31a.38.38,0,0,1-.35.41,3.73,3.73,0,0,1-1.18.18v-.77h-2a2.12,2.12,0,0,1-.18.59l1.6.18c.16,0,.24.12.24.24s-.16.34-.47.41v2.25q-.06.53.53.47h.41q.59.06.83-.71l.65-1.83.24.06.06,1.66a.76.76,0,0,0,.3.71.5.5,0,0,1,.3.41q-.06,1-2,1H38.67q-1.48.12-1.42-1.36v-3q-1,3.19-5.8,4.85l-.18-.3q4-2.37,4.61-5.68h-1.3v.77a.32.32,0,0,1-.3.41,6.65,6.65,0,0,1-1.18.12c0-.63.06-1.32.06-2.07v-2.25q-.36.3-.83.65l-.12-.12v.95q0,1.6.06,4.38a.5.5,0,0,1-.35.53,5.16,5.16,0,0,1-1.12.12v-1H29.56v1.12c0,.32-.1.49-.3.53A4.55,4.55,0,0,1,28.08,146.14ZM30.8,136H29.56v3.73H30.8Zm-1.24,4.14V144H30.8v-3.79Zm5.92-4a9.31,9.31,0,0,1-1.3,1.78l.83.24h1.42l.83-2Zm.53,5.33a16.07,16.07,0,0,0,.24-3H34.59v3Zm3.49-3H37.84a28.19,28.19,0,0,1-.24,3H39.5Z"/><path class="cls-1" d="M54.17,146.62l1.06-1.24,1.83,1.24s.06.06.06.18-.14.24-.41.24H42.81v-.42h5.62v-9.23q0-2-.06-3.2l2.25.18c.16,0,.24.06.24.18s-.18.43-.65.59v4.44h3l1-1.36,1.72,1.24a.34.34,0,0,1,.06.24c0,.12-.14.2-.41.24H50.21v6.68Z"/><path class="cls-1" d="M69,138.51l.77-1.54,2.13,1a.24.24,0,0,1,.12.24q.06.18-.35.3l-7.81,1.36v4.85q-.12.89.89.77H68a1,1,0,0,0,1.18-.89l.83-3,.3.06.12,2.43a1.44,1.44,0,0,0,.41,1.07.85.85,0,0,1,.35.65Q70.91,147,68.9,147H63.69a1.41,1.41,0,0,1-1.6-1.6v-5.21l-4.14.71-.06-.41,4.2-.77v-1.54q0-.53-.06-2.07v-1.71l2.25.18a.16.16,0,0,1,.18.18c0,.24-.2.43-.59.59v4.08Z"/><path class="cls-1" d="M77.54,146.26v-1.48H75.65v1.42a.36.36,0,0,1-.3.41,9.67,9.67,0,0,1-1.24.12q.06-.77.06-1.78v-6.15q0-2.13-.06-3.55l2,.47h1.18l.53-.83,1.6.59.06.06a.35.35,0,0,1,.18.3q0,.3-.59.59v6.15q.06,2.25.06,3.14c0,.24-.06.35-.3.35A4.31,4.31,0,0,1,77.54,146.26Zm0-10.18H75.65v4h1.89Zm-1.89,4.38v4h1.89v-4Zm9.76-2.6.71-1,1.3.95a.19.19,0,0,1,.12.18q0,.18-.35.24H85v1.48q0,2.07.12,6,.06,1.77-2.48,1.89.06-1.3-2.19-1.48l.06-.3,2,.06q1,.06.95-.77v-6.92H79.31v-.36H83.4q0-.83-.06-2.19v-1.48l2,.18c.16,0,.24.06.24.18s-.24.41-.59.53v2.78ZM80,139.52q2.37.83,2.31,2.07a1.12,1.12,0,0,1-1.06,1.18q-.53,0-.65-.65a7.11,7.11,0,0,0-.71-2.48Z"/><path class="cls-1" d="M99.25,146l1-1.36,1.83,1.36c.08,0,.12.06.12.18s-.12.12-.35.12H88.48V146Zm-.47-10,.95-1.24,1.66,1.24c.12,0,.16.1.12.18s-.12.2-.35.24h-12V136Zm-.83,4.73.89-1.18,1.72,1.18a.19.19,0,0,1,.12.18c0,.12-.14.2-.41.24H90.08v-.41Z"/><path class="cls-1" d="M114.46,139.81l1.18-1.54,2,1.42a.24.24,0,0,1,.12.24c0,.12-.16.2-.47.24h-6v3.73q.06,2,.06,3.19a.37.37,0,0,1-.35.47q-1.06.12-1.6.12,0-.53.06-1.48.06-2.84.06-3.55v-2.49h-6v-.35h6v-3.37q-.06-1.48-.06-2.25l2.25.18a.23.23,0,0,1,.24.18q0,.35-.65.53v4.73Z"/><path class="cls-1" d="M122.86,134.79l2.13.77c.16.08.24.18.24.3s-.26.38-.77.41a12.94,12.94,0,0,1-5.74,5.8l-.24-.3a18.11,18.11,0,0,0,3.79-5.38A5.38,5.38,0,0,0,122.86,134.79Zm4.67,5.56.59-1,.47.24a8.83,8.83,0,0,1-2-4.08q-.18-.59-.41-1.18l1.24.12h.06a.19.19,0,0,1,.12.18c0,.12-.2.26-.59.41a8.83,8.83,0,0,0,5.92,4.56l-.06.3a2.81,2.81,0,0,0-1.42,1.72,7.5,7.5,0,0,1-1.48-.83.9.9,0,0,1-.47.3q0,1.36-.24,3.85T126,147.56q.12-1.3-2.07-1.72l.12-.3,2,.18q1.36.12,1.48-1.12a29.56,29.56,0,0,0,.3-3.91h-3.14q-.18,5.86-6,7.16l-.12-.24q4.38-2.48,4.38-6.92h-1.6v-.35Z"/><path class="cls-1" d="M145,146.44l1.06-1.24,1.83,1.18a.47.47,0,0,1,.06.18c0,.16-.14.24-.41.24H133.86v-.35h6v-2.78H135v-.35h4.79q0-1.36-.06-2.49l2.13.18c.16,0,.24.06.24.18s-.2.41-.59.53v1.6h2.31l1-1.3,1.72,1.24a.25.25,0,0,1,.06.18c0,.12-.12.2-.35.24h-4.73v2.78Zm-.47-10.83,1-1.36,1.72,1.24a.35.35,0,0,1,.06.24c0,.12-.14.2-.41.24h-5.68a24.43,24.43,0,0,1-3.67,3.31l6.21-.35a12.79,12.79,0,0,0-1.6-1.89l.12-.24q4.26,1.66,4.26,3.31-.06,1.13-1,1.24a1.05,1.05,0,0,1-.83-.59,5.68,5.68,0,0,0-.47-1.12,67.45,67.45,0,0,1-7.75,1.36q0,.65-.35.65c-.12,0-.2-.1-.24-.3l-.59-2.07a1.91,1.91,0,0,0,1.48-.59,15.42,15.42,0,0,0,2-2.72h-4.38v-.36Z"/><path class="cls-1" d="M157.23,138l.65-.95,1.77.65c.16.08.24.18.24.3s-.22.47-.65.71v6.09q-.06.65.65.59h.71q.59.06.83-.71l.71-2.6.3.06.06,2.37a1,1,0,0,0,.3.83.61.61,0,0,1,.35.59q-.06.89-1.89.89h-2.07q-1.66.06-1.6-1.72v-6.74H155q.18,6.86-6.15,9.29l-.18-.24a11,11,0,0,0,4.67-9.05h-3.67V138h3.67v-1.3q0-1.6-.06-2.6l2.07.18c.24,0,.33.08.3.24s-.2.35-.59.47v1.07q0,1.06-.06,2Z"/><path class="cls-1" d="M168.41,146.26v-1.48h-1.89v1.42a.36.36,0,0,1-.3.41,9.67,9.67,0,0,1-1.24.12Q165,146,165,145v-6.15q0-2.13-.06-3.55l2,.47h1.18l.53-.83,1.6.59.06.06a.35.35,0,0,1,.18.3q0,.3-.59.59v6.15q.06,2.25.06,3.14c0,.24-.06.35-.3.35A4.31,4.31,0,0,1,168.41,146.26Zm0-10.18h-1.89v4h1.89Zm-1.89,4.38v4h1.89v-4Zm9.76-2.6.71-1,1.3.95a.19.19,0,0,1,.12.18c0,.12-.12.2-.36.24h-2.19v1.48q0,2.07.12,6,.06,1.77-2.49,1.89.06-1.3-2.19-1.48l.06-.3,2,.06q1,.06.95-.77v-6.92h-4.08v-.36h4.08q0-.83-.06-2.19v-1.48l2,.18c.16,0,.24.06.24.18s-.24.41-.59.53v2.78Zm-5.38,1.66q2.37.83,2.31,2.07a1.11,1.11,0,0,1-1.06,1.18q-.53,0-.65-.65a7.11,7.11,0,0,0-.71-2.48Z"/></g></g></svg>